<?xml version="1.0" encoding="UTF-8"?>
<svg width="26px" height="26px" viewBox="0 0 26 26" version="1.1" xmlns="http://www.w3.org/2000/svg" xmlns:xlink="http://www.w3.org/1999/xlink">
    <title>icon/彩色/评估单信息</title>
    <defs>
        <linearGradient x1="13.9164966%" y1="0%" x2="88.28125%" y2="100%" id="linearGradient-1">
            <stop stop-color="#4268E6" offset="0%"></stop>
            <stop stop-color="#498EFA" offset="100%"></stop>
        </linearGradient>
    </defs>
    <g id="icon/彩色/评估单信息" stroke="none" stroke-width="1" fill="none" fill-rule="evenodd">
        <g id="activity" transform="translate(6.000000, 5.000000)" fill="url(#linearGradient-1)" fill-rule="nonzero">
            <path d="M12.9230769,14.8674704 C12.9230769,14.9026399 12.9079402,14.9231022 12.9211026,14.9250205 L1.10258974,14.9333333 C1.09732479,14.9294967 1.07692308,14.9064766 1.07692308,14.8674704 L1.07692308,5.33333333 L12.9230769,5.33333333 L12.9230769,14.8674704 Z M1.07692308,2.19802288 C1.07692308,2.15963568 1.09008547,2.1368877 1.07889744,2.13333333 L3.70940171,2.13333333 L3.70940171,2.48948128 C3.70940171,2.88208624 4.00405192,3.20035544 4.36752137,3.20035544 C4.73099082,3.20035544 5.02564103,2.88208624 5.02564103,2.48948128 L5.02564103,2.13404421 L8.97435897,2.13404421 L8.97435897,2.48948128 C8.97435897,2.88208624 9.26900918,3.20035544 9.63247863,3.20035544 C9.99594808,3.20035544 10.2905983,2.88208624 10.2905983,2.48948128 L10.2905983,2.13404421 L12.9026752,2.13404421 C12.9158127,2.15236184 12.9230769,2.17485181 12.9230769,2.19802288 L12.9230769,4.26666667 L1.07692308,4.26666667 L1.07692308,2.19802288 Z M12.7240909,0.941176471 L10.1818182,0.941176471 L10.1818182,0.62745098 C10.1818182,0.280919373 9.89690848,0 9.54545455,0 C9.19400061,0 8.90909091,0.280919373 8.90909091,0.62745098 L8.90909091,0.941176471 L5.09090909,0.941176471 L5.09090909,0.62745098 C5.09090909,0.280919373 4.80599939,0 4.45454545,0 C4.10309152,0 3.81818182,0.280919373 3.81818182,0.62745098 L3.81818182,0.941176471 L1.267,0.941176471 C0.568272727,0.941176471 0,1.52972549 0,2.25254902 L0,14.6886275 C0,15.4120784 0.568909091,16 1.26763636,16 L12.7323636,16 C13.4310909,16 14,15.4120784 14,14.6886275 L14,2.25254902 C14,1.52909804 13.4279091,0.94054902 12.7240909,0.94054902 L12.7240909,0.941176471 Z M4.95384615,8.53333333 L10.1230769,8.53333333 C10.4799378,8.53333333 10.7692308,8.29455187 10.7692308,8 C10.7692308,7.70544813 10.4799378,7.46666667 10.1230769,7.46666667 L4.95384615,7.46666667 C4.59698524,7.46666667 4.30769231,7.70544813 4.30769231,8 C4.30769231,8.29455187 4.59698524,8.53333333 4.95384615,8.53333333 L4.95384615,8.53333333 Z M4.95384615,11.7333333 L10.1230769,11.7333333 C10.4799378,11.7333333 10.7692308,11.4945519 10.7692308,11.2 C10.7692308,10.9054481 10.4799378,10.6666667 10.1230769,10.6666667 L4.95384615,10.6666667 C4.59698524,10.6666667 4.30769231,10.9054481 4.30769231,11.2 C4.30769231,11.4945519 4.59698524,11.7333333 4.95384615,11.7333333 L4.95384615,11.7333333 Z" id="Shape"></path>
        </g>
    </g>
</svg>