<?xml version="1.0" encoding="UTF-8"?>
<svg width="26px" height="26px" viewBox="0 0 26 26" version="1.1" xmlns="http://www.w3.org/2000/svg" xmlns:xlink="http://www.w3.org/1999/xlink">
    <title>icon/彩色/超时理由</title>
    <defs>
        <linearGradient x1="4.1479604%" y1="0%" x2="98.6447607%" y2="100%" id="linearGradient-1">
            <stop stop-color="#4268E6" offset="0%"></stop>
            <stop stop-color="#498EFA" offset="100%"></stop>
        </linearGradient>
    </defs>
    <g id="icon/彩色/超时理由" stroke="none" stroke-width="1" fill="none" fill-rule="evenodd">
        <g id="clock" transform="translate(3.000000, 3.000000)" fill-rule="nonzero">
            <g id="Group">
                <rect id="Rectangle-path" fill="#000000" opacity="0" x="0" y="0" width="21" height="21"></rect>
                <path d="M10.5,16.6779375 C7.2436875,16.6779375 4.59375,14.028 4.59375,10.7716875 C4.59375,7.515375 7.2436875,4.8654375 10.5,4.8654375 C13.7563125,4.8654375 16.40625,7.515375 16.40625,10.7716875 C16.40625,14.028 13.7563125,16.6779375 10.5,16.6779375 L10.5,16.6779375 Z M10.5,3.5529375 C6.51984375,3.5529375 3.28125,6.79153125 3.28125,10.7716875 C3.28125,12.8605312 4.17834375,14.739375 5.60175,16.0590937 C5.49971799,16.0873237 5.40633759,16.140555 5.3300625,16.2139687 L4.12978125,17.4149062 C3.9641384,17.5806663 3.89951004,17.8222043 3.96024105,18.0485353 C4.02097206,18.2748662 4.19783595,18.4516051 4.42420981,18.5121759 C4.65058366,18.5727468 4.89207591,18.5079476 5.05771875,18.3421875 L6.258,17.1419062 C6.36457045,17.0319541 6.42874139,16.887802 6.439125,16.7350312 C7.63477017,17.5542816 9.05060835,17.9919834 10.5,17.9904375 C11.9627812,17.9904375 13.3231875,17.55075 14.461125,16.8 C14.4810938,16.9285226 14.539953,17.0478441 14.6297813,17.1419062 L15.8300625,18.3428437 C15.9528699,18.4663561 16.1198562,18.5358041 16.2940313,18.5358041 C16.4682063,18.5358041 16.6351926,18.4663561 16.758,18.3428437 C16.8812287,18.2197521 16.9504694,18.0527217 16.9504694,17.8785469 C16.9504694,17.7043721 16.8812287,17.5373417 16.758,17.41425 L15.5577188,16.2139687 C15.5023541,16.1607235 15.4378985,16.1178272 15.3674063,16.0873125 C16.8085313,14.7669375 17.71875,12.875625 17.71875,10.7716875 C17.71875,6.79153125 14.4801563,3.5529375 10.5,3.5529375 L10.5,3.5529375 Z M11.15625,10.6456875 L11.15625,6.8341875 C11.15625,6.47175063 10.8624369,6.1779375 10.5,6.1779375 C10.1375631,6.1779375 9.84375,6.47175063 9.84375,6.8341875 L9.84375,10.917375 C9.84375,11.0912812 9.91265625,11.258625 10.0360313,11.3813437 L12.2364375,13.58175 C12.3592449,13.7052623 12.5262312,13.7747104 12.7004063,13.7747104 C12.8745813,13.7747104 13.0415676,13.7052623 13.164375,13.58175 C13.4205631,13.3254845 13.4205631,12.910078 13.164375,12.6538125 L11.15625,10.6456875 Z M3.74521875,5.8734375 L5.60175,4.01625 C5.84411842,3.75778947 5.83755517,3.35360497 5.58692286,3.1031499 C5.33629054,2.85269484 4.9321015,2.84641754 4.6738125,3.08896875 L2.81728125,4.9455 C2.65152118,5.11126007 2.5867845,5.35286063 2.64745689,5.5792931 C2.70812929,5.80572557 2.88499318,5.98258946 3.11142565,6.04326186 C3.33785812,6.10393425 3.57945868,6.03919757 3.74521875,5.8734375 L3.74521875,5.8734375 Z M18.1262812,4.67315625 L16.2704063,2.81728125 C16.1046462,2.65152118 15.8630456,2.5867845 15.6366131,2.64745689 C15.4101807,2.70812929 15.2333168,2.88499318 15.1726444,3.11142565 C15.111972,3.33785812 15.1767087,3.57945868 15.3424688,3.74521875 L17.1983437,5.60109375 C17.3211512,5.72460606 17.4881374,5.79405412 17.6623125,5.79405412 C17.8364876,5.79405412 18.0034738,5.72460606 18.1262812,5.60109375 C18.2494701,5.47811418 18.3186945,5.31119243 18.3186945,5.137125 C18.3186945,4.96305757 18.2494701,4.79613582 18.1262812,4.67315625 L18.1262812,4.67315625 Z" id="Shape" fill="url(#linearGradient-1)"></path>
            </g>
        </g>
    </g>
</svg>