<?xml version="1.0" encoding="UTF-8"?>
<svg width="60px" height="60px" viewBox="0 0 60 60" version="1.1" xmlns="http://www.w3.org/2000/svg" xmlns:xlink="http://www.w3.org/1999/xlink">
    <title>异常</title>
    <defs>
        <linearGradient x1="-22.6431078%" y1="-12.6992086%" x2="162.411691%" y2="113.951091%" id="linearGradient-1">
            <stop stop-color="#4468DF" offset="0%"></stop>
            <stop stop-color="#5AADF9" offset="100%"></stop>
        </linearGradient>
    </defs>
    <g id="异常" stroke="none" stroke-width="1" fill="none" fill-rule="evenodd">
        <path d="M24.1595092,40.8328841 C24.1595092,31.1617251 31.8895706,23.3504043 41.4601227,23.3504043 C43.0552147,23.3504043 44.5276074,23.5983827 46,23.9703504 L46,8.71967655 C46,6.73584906 44.404908,5 42.3190184,5 L9.6809816,5 C7.59509202,5 6,6.61185984 6,8.71967655 L6,47.2803235 C6,49.2641509 7.59509202,51 9.6809816,51 L27.3496933,51 C25.3865031,48.0242588 24.1595092,44.5525606 24.1595092,40.8328841 Z M15.8028846,13 L37.1971154,13 C38.1586538,13 39,13.9333333 39,15 C39,16.0666667 38.1586538,17 37.1971154,17 L15.8028846,17 C14.8413462,17 14,16.0666667 14,15 C14,13.9333333 14.8413462,13 15.8028846,13 Z M15.8539326,22 L23.1460674,22 C24.1348315,22 25,22.9333333 25,24 C25,25.0666667 24.1348315,26 23.1460674,26 L15.8539326,26 C14.8651685,26 14,25.0666667 14,24 C14,22.9333333 14.8651685,22 15.8539326,22 Z M19,38 L15,38 C13.9333333,38 13,37.0666667 13,36 C13,34.9333333 13.9333333,34 15,34 L19,34 C20.0666667,34 21,34.9333333 21,36 C21,37.0666667 20.0666667,38 19,38 Z M41.5,27 C48.9189189,27 55,33.0810811 55,40.5 C55,47.9189189 48.9189189,54 41.5,54 C34.0810811,54 28,47.9189189 28,40.5 C28,33.0810811 34.0810811,27 41.5,27 L41.5,27 Z M42,31 C40.9333333,31 40,31.9333333 40,33 L40,41 C40,42.0666667 40.9333333,43 42,43 C43.0666667,43 44,42.0666667 44,41 L44,33 C44,31.9333333 43.0666667,31 42,31 Z M42,45 C40.9333333,45 40,45.9333333 40,47 C40,48.0666667 40.9333333,49 42,49 C43.0666667,49 44,48.0666667 44,47 C44,45.9333333 43.0666667,45 42,45 Z" id="形状" fill="url(#linearGradient-1)" fill-rule="nonzero"></path>
    </g>
</svg>