<?xml version="1.0" encoding="UTF-8"?>
<svg width="26px" height="26px" viewBox="0 0 26 26" version="1.1" xmlns="http://www.w3.org/2000/svg" xmlns:xlink="http://www.w3.org/1999/xlink">
    <title>icon/彩色/成交信息</title>
    <defs>
        <linearGradient x1="8.57761085%" y1="0%" x2="93.9453125%" y2="100%" id="linearGradient-1">
            <stop stop-color="#4268E6" offset="0%"></stop>
            <stop stop-color="#498EFA" offset="100%"></stop>
        </linearGradient>
    </defs>
    <g id="icon/彩色/成交信息" stroke="none" stroke-width="1" fill="none" fill-rule="evenodd">
        <g id="task" transform="translate(6.000000, 5.000000)" fill="url(#linearGradient-1)" fill-rule="nonzero">
            <path d="M1.36363636,14.6142609 L1.3575,2.08695652 L3.40909091,2.08695652 L3.40909091,2.77565217 C3.40909091,3.54643478 4.01931818,4.17391304 4.77,4.17391304 L10.23,4.17391304 C10.983933,4.17046252 11.5927968,3.54488765 11.5909091,2.77565217 L11.5909091,2.08695652 L13.6363636,2.0813913 L13.6418182,14.6086957 L1.36363636,14.6142609 Z M10.2272727,1.39826087 L10.23,2.7826087 L4.77272727,2.77565217 L4.77272727,1.39826087 L4.77,1.39130435 L10.2272727,1.39826087 Z M13.6329545,0.695652174 L11.4,0.695652174 C11.1640909,0.28173913 10.7304545,0 10.23,0 L4.77,0 C4.26954545,0 3.83659091,0.281043478 3.6,0.695652174 L1.3575,0.695652174 C0.607819056,0.696419657 0.000375779827,1.31649915 0,2.0813913 L0,14.6142609 C0,15.378087 0.609545455,16 1.35818182,16 L13.6418182,16 C14.3914542,15.9988507 14.9988736,15.3791069 15,14.6142609 L15,2.0813913 C14.9969931,1.3138101 14.385275,0.693727075 13.6329545,0.695652174 Z M9.78136364,6.5453913 L6.54818182,10.1516522 L5.22477273,8.6386087 C4.97398524,8.35199692 4.54295756,8.3270806 4.26204545,8.58295652 C3.98113335,8.83883245 3.95671252,9.27860562 4.2075,9.56521739 L6.03340909,11.6521739 C6.16182389,11.79893 6.34513781,11.8833477 6.53795455,11.8845217 L6.54204545,11.8845217 C6.73295455,11.8845217 6.91568182,11.8024348 7.04522727,11.6584348 L10.7877273,7.48452174 C11.0419038,7.20098355 11.0226724,6.76089893 10.7447727,6.50156522 C10.4668731,6.24223151 10.0355401,6.26185312 9.78136364,6.5453913 L9.78136364,6.5453913 Z" id="Shape"></path>
        </g>
    </g>
</svg>