<?xml version="1.0" encoding="UTF-8"?>
<svg width="26px" height="26px" viewBox="0 0 26 26" version="1.1" xmlns="http://www.w3.org/2000/svg" xmlns:xlink="http://www.w3.org/1999/xlink">
    <title>icon/彩色/订单是否有效</title>
    <defs>
        <linearGradient x1="2.87052612%" y1="15.2777778%" x2="100%" y2="84.7222222%" id="linearGradient-1">
            <stop stop-color="#4268E6" offset="0%"></stop>
            <stop stop-color="#498EFA" offset="100%"></stop>
        </linearGradient>
    </defs>
    <g id="icon/彩色/订单是否有效" stroke="none" stroke-width="1" fill="none" fill-rule="evenodd">
        <g id="shielding" transform="translate(4.000000, 6.000000)" fill="url(#linearGradient-1)" fill-rule="nonzero">
            <path d="M8.32084615,12.2727276 L2.07415385,12.2727276 C1.69376027,12.2723526 1.38537827,11.968948 1.38461538,11.5943185 L1.38669231,1.3636378 L14.5446923,1.3636378 C14.9233846,1.3636378 15.2300769,1.67113777 15.2300769,2.04818318 L15.2300769,5.49681918 C15.2300769,5.87337693 15.5400336,6.17863729 15.9223846,6.17863729 C16.3047356,6.17863729 16.6146942,5.87337693 16.6146942,5.49681918 L16.6146942,2.04818318 C16.6162269,0.920368303 15.6905439,0.00413589249 14.5453846,1.15463195e-14 L1.38669231,1.15463195e-14 C0.623068523,-0.00113110493 0.00267182018,0.606815175 0,1.35886507 L0,11.5943185 C0.00190668846,12.7215964 0.929532588,13.6348623 2.07415385,13.6363638 L8.32084615,13.6363638 C8.70319713,13.6363638 9.01315385,13.3311034 9.01315385,12.9545457 C9.01315385,12.5779879 8.70319713,12.2727276 8.32084615,12.2727276 M6.23076923,6.81818268 L3.46153846,6.81818268 C3.07918748,6.81818268 2.76923077,7.12344305 2.76923077,7.50000079 C2.76923077,7.87655853 3.07918748,8.1818189 3.46153846,8.1818189 L6.23076923,8.1818189 C6.61312021,8.1818189 6.92307692,7.87655853 6.92307692,7.50000079 C6.92307692,7.12344305 6.61312021,6.81818268 6.23076923,6.81818268 M6.23076923,9.54545512 L3.46153846,9.54545512 C3.07918748,9.54545512 2.76923077,9.85071549 2.76923077,10.2272732 C2.76923077,10.603831 3.07918748,10.9090913 3.46153846,10.9090913 L6.23076923,10.9090913 C6.61312021,10.9090913 6.92307692,10.603831 6.92307692,10.2272732 C6.92307692,9.85071549 6.61312021,9.54545512 6.23076923,9.54545512 M9,4.09091024 L3.46153846,4.09091024 C3.07918748,4.09091024 2.76923077,4.39617061 2.76923077,4.77272835 C2.76923077,5.14928609 3.07918748,5.45454646 3.46153846,5.45454646 L9,5.45454646 C9.38235098,5.45454646 9.69230769,5.14928609 9.69230769,4.77272835 C9.69230769,4.39617061 9.38235098,4.09091024 9,4.09091024 M13.8461538,13.6363638 C12.3189231,13.6363638 11.0769231,12.4131821 11.0769231,10.9090913 C11.0769231,10.4045459 11.2257692,9.93818235 11.4694615,9.53250058 L15.2439231,13.2497729 C14.8219204,13.50041 14.3389491,13.6339887 13.8461538,13.6363638 M13.8461538,8.1818189 C15.3733846,8.1818189 16.6153846,9.40500059 16.6153846,10.9090913 C16.6153846,11.4136367 16.4665385,11.8800003 16.2228462,12.2856821 L12.4483846,8.56840977 C12.8703873,8.3177727 13.3533586,8.18419394 13.8461538,8.1818189 M13.8461538,6.81818268 C11.5553077,6.81818268 9.69230769,8.65295521 9.69230769,10.9090913 C9.69230769,13.1652275 11.5553077,15 13.8461538,15 C16.137,15 18,13.1652275 18,10.9090913 C18,8.65295521 16.137,6.81818268 13.8461538,6.81818268" id="Shape"></path>
        </g>
    </g>
</svg>