<?xml version="1.0" encoding="UTF-8"?>
<svg width="18px" height="18px" viewBox="0 0 18 18" version="1.1" xmlns="http://www.w3.org/2000/svg" xmlns:xlink="http://www.w3.org/1999/xlink">
    <title>手机号</title>
    <defs>
        <linearGradient x1="2.87732586%" y1="0%" x2="99.9927861%" y2="100%" id="linearGradient-1">
            <stop stop-color="#4268E6" offset="0%"></stop>
            <stop stop-color="#498EFA" offset="100%"></stop>
        </linearGradient>
    </defs>
    <g id="手机号" stroke="none" stroke-width="1" fill="none" fill-rule="evenodd">
        <path d="M4.70726841,8.83626841 C5.25407706,9.89227525 5.95961257,10.8581709 6.79926841,11.7002684 C7.64159903,12.5403619 8.60784089,13.2462412 9.66426841,13.7932684 L11.3162684,12.1412684 C11.5180015,11.9376616 11.8192736,11.8690666 12.0892684,11.9652684 C12.9512622,12.2494706 13.8536441,12.3919875 14.7612684,12.3872684 C14.9585253,12.3818657 15.1492448,12.4582259 15.2882684,12.5982684 C15.4283109,12.737292 15.5046711,12.9280115 15.4992684,13.1252684 L15.4992684,15.7622684 C15.5046711,15.9595253 15.4283109,16.1502448 15.2882684,16.2892684 C15.1494853,16.4290544 14.9591811,16.5053931 14.7622684,16.5002684 C11.3780885,16.500668 8.13305438,15.1534283 5.74426841,12.7562684 C3.3471085,10.3674824 2,7.12244835 2.00026841,3.73826841 C1.99486568,3.54101153 2.07122588,3.35029198 2.21126841,3.21126841 C2.35029198,3.07122588 2.54101153,2.99486568 2.73826841,3.00026841 L5.37526841,3.00026841 C5.57252528,2.99486568 5.76324483,3.07122588 5.90226841,3.21126841 C6.04231093,3.35029198 6.11867113,3.54101153 6.11326841,3.73826841 C6.10854933,4.64589268 6.25106625,5.54827466 6.53526841,6.41026841 C6.63147018,6.68026325 6.56287525,6.98153529 6.35926841,7.18326841 L4.70726841,8.83626841 Z" id="Path_286" fill="url(#linearGradient-1)" fill-rule="nonzero"></path>
    </g>
</svg>