<?xml version="1.0" encoding="UTF-8"?>
<svg width="40px" height="46px" viewBox="0 0 40 46" version="1.1" xmlns="http://www.w3.org/2000/svg" xmlns:xlink="http://www.w3.org/1999/xlink">
    <title>rating/rating-3</title>
    <g id="rating/rating-3" stroke="none" stroke-width="1" fill="none" fill-rule="evenodd" opacity="1">
        <g id="rating-3">
            <circle id="XMLID_7726_" fill="#FFE500" fill-rule="nonzero" cx="20" cy="20.2" r="20"></circle>
            <path d="M20,0.2 C9,0.2 0,9.2 0,20.2 C0,31.2 9,40.2 20,40.2 C31,40.2 40,31.2 40,20.2 C40,9.2 31,0.2 20,0.2 Z M20,37.2 C9.9,37.2 1.8,29 1.8,19 C1.8,8.9 10,0.8 20,0.8 C30,0.8 38.2,9 38.2,19 C38.3,29 30.1,37.2 20,37.2 Z" id="XMLID_7723_" fill="#EBCB00" fill-rule="nonzero"></path>
            <ellipse id="XMLID_7722_" fill="#FFF48C" fill-rule="nonzero" cx="20" cy="4.2" rx="6" ry="1.5"></ellipse>
            <ellipse id="XMLID_7721_" fill="#45413C" fill-rule="nonzero" opacity="0.15" cx="20" cy="43.8" rx="16" ry="1.5"></ellipse>
            <circle id="XMLID_7720_" stroke="#45413C" stroke-linecap="round" stroke-linejoin="round" cx="20" cy="20.2" r="20"></circle>
            <ellipse id="XMLID_7719_" fill="#FFAA54" fill-rule="nonzero" cx="32" cy="25.2" rx="2.5" ry="1.5"></ellipse>
            <ellipse id="XMLID_7718_" fill="#FFAA54" fill-rule="nonzero" cx="8" cy="25.2" rx="2.5" ry="1.5"></ellipse>
            <line x1="15" y1="29.7" x2="25" y2="29.7" id="XMLID_7717_" stroke="#45413C" stroke-linecap="round" stroke-linejoin="round"></line>
            <line x1="12.5" y1="20.7" x2="7" y2="20.7" id="XMLID_7716_" stroke="#45413C" stroke-linecap="round" stroke-linejoin="round"></line>
            <line x1="33" y1="20.7" x2="27.5" y2="20.7" id="XMLID_7715_" stroke="#45413C" stroke-linecap="round" stroke-linejoin="round"></line>
        </g>
    </g>
</svg>