<?xml version="1.0" encoding="UTF-8"?>
<svg width="40px" height="46px" viewBox="0 0 40 46" version="1.1" xmlns="http://www.w3.org/2000/svg" xmlns:xlink="http://www.w3.org/1999/xlink">
    <title>rating/rating-1</title>
    <g id="rating/rating-1" stroke="none" stroke-width="1" fill="none" fill-rule="evenodd" opacity="1">
        <g id="rating-1">
            <circle id="XMLID_596_" fill="#FFE500" fill-rule="nonzero" cx="20" cy="20.3" r="20"></circle>
            <path d="M20,0.3 C9,0.3 0,9.3 0,20.3 C0,31.3 9,40.3 20,40.3 C31,40.3 40,31.3 40,20.3 C40,9.2 31,0.3 20,0.3 Z M20,37.3 C9.9,37.3 1.8,29.1 1.8,19.1 C1.8,9 10,0.9 20,0.9 C30,0.9 38.2,9.1 38.2,19.1 C38.3,29.1 30.1,37.3 20,37.3 Z" id="XMLID_592_" fill="#EBCB00" fill-rule="nonzero"></path>
            <ellipse id="XMLID_589_" fill="#FFF48C" fill-rule="nonzero" cx="20" cy="4.3" rx="6" ry="1.5"></ellipse>
            <ellipse id="XMLID_587_" fill="#45413C" fill-rule="nonzero" opacity="0.15" cx="20" cy="43.7" rx="16" ry="1.5"></ellipse>
            <circle id="XMLID_586_" stroke="#45413C" stroke-linecap="round" stroke-linejoin="round" cx="20" cy="20.3" r="20"></circle>
            <ellipse id="XMLID_584_" fill="#FFAA54" fill-rule="nonzero" cx="32" cy="25.3" rx="2.5" ry="1.5"></ellipse>
            <ellipse id="XMLID_583_" fill="#FFAA54" fill-rule="nonzero" cx="8" cy="25.3" rx="2.5" ry="1.5"></ellipse>
            <path d="M32.3,16.8 L29.1,18.4 C28.4,18.8 28.4,19.8 29.1,20.2 L32.3,21.8" id="XMLID_582_" stroke="#45413C" stroke-linecap="round" stroke-linejoin="round"></path>
            <path d="M7.7,16.8 L10.9,18.4 C11.6,18.8 11.6,19.8 10.9,20.2 L7.7,21.8" id="XMLID_581_" stroke="#45413C" stroke-linecap="round" stroke-linejoin="round"></path>
            <path d="M9,14.8 C10.1,14.6 11.2,14.3 12.4,13.7 C13.5,13.1 14.5,12.4 15.3,11.6" id="XMLID_580_" stroke="#45413C" stroke-linecap="round" stroke-linejoin="round"></path>
            <path d="M30.8,14.8 C29.7,14.6 28.6,14.3 27.4,13.7 C26.3,13.1 25.3,12.4 24.5,11.6" id="XMLID_579_" stroke="#45413C" stroke-linecap="round" stroke-linejoin="round"></path>
            <path d="M28.5,31.3 L26.7,29.5 C26.3,29.1 25.7,29.1 25.3,29.5 L23.7,31.1 C23.3,31.5 22.7,31.5 22.3,31.1 L20.7,29.5 C20.3,29.1 19.7,29.1 19.3,29.5 L17.7,31.1 C17.3,31.5 16.7,31.5 16.3,31.1 L14.7,29.5 C14.3,29.1 13.7,29.1 13.3,29.5 L11.5,31.3" id="XMLID_578_" stroke="#45413C" stroke-linecap="round" stroke-linejoin="round"></path>
        </g>
    </g>
</svg>