<?xml version="1.0" encoding="UTF-8"?>
<svg width="40px" height="47px" viewBox="0 0 40 47" version="1.1" xmlns="http://www.w3.org/2000/svg" xmlns:xlink="http://www.w3.org/1999/xlink">
    <title>rating/rating-5-select</title>
    <g id="rating/rating-5-select" stroke="none" stroke-width="1" fill="none" fill-rule="evenodd">
        <g id="rating-5-select">
            <circle id="XMLID_1324_" fill="#FFE500" fill-rule="nonzero" cx="20" cy="20.8" r="20"></circle>
            <path d="M20,0.8 C9,0.8 0,9.8 0,20.8 C0,31.8 9,40.8 20,40.8 C31,40.8 40,31.8 40,20.8 C40,9.7 31,0.8 20,0.8 Z M20,37.8 C9.9,37.8 1.8,29.6 1.8,19.6 C1.8,9.5 10,1.4 20,1.4 C30,1.4 38.2,9.6 38.2,19.6 C38.3,29.6 30.1,37.8 20,37.8 Z" id="XMLID_1321_" fill="#EBCB00" fill-rule="nonzero"></path>
            <ellipse id="XMLID_1320_" fill="#FFF48C" fill-rule="nonzero" cx="20" cy="4.8" rx="6" ry="1.5"></ellipse>
            <ellipse id="XMLID_1319_" fill="#45413C" fill-rule="nonzero" opacity="0.15" cx="20" cy="45.3" rx="16" ry="1.5"></ellipse>
            <circle id="XMLID_1285_" stroke="#45413C" stroke-linecap="round" stroke-linejoin="round" cx="20" cy="20.8" r="20"></circle>
            <ellipse id="XMLID_1280_" fill="#FFAA54" fill-rule="nonzero" cx="32" cy="25.8" rx="2.5" ry="1.5"></ellipse>
            <ellipse id="XMLID_1279_" fill="#FFAA54" fill-rule="nonzero" cx="8" cy="25.8" rx="2.5" ry="1.5"></ellipse>
            <circle id="XMLID_1278_" stroke="#45413C" fill="#45413C" fill-rule="nonzero" stroke-linecap="round" stroke-linejoin="round" cx="9.5" cy="19.8" r="1"></circle>
            <circle id="XMLID_1277_" stroke="#45413C" fill="#45413C" fill-rule="nonzero" stroke-linecap="round" stroke-linejoin="round" cx="30.5" cy="19.8" r="1"></circle>
            <path d="M20,37.8 C25.6,37.8 30.3,33.8 31,28.6 C31,28.3 30.9,28 30.7,27.8 C30.5,27.6 30.1,27.5 29.8,27.5 C23.3,28.5 16.8,28.5 10.3,27.5 C10,27.4 9.6,27.5 9.4,27.8 C9.2,28 9,28.3 9.1,28.6 C9.7,33.8 14.4,37.8 20,37.8 Z" id="XMLID_1276_" stroke="#45413C" fill="#FFB0CA" fill-rule="nonzero" stroke-linecap="round" stroke-linejoin="round"></path>
            <path d="M20,32.8 C16.8,32.8 13.9,33.5 11.9,34.5 C13.9,36.5 16.8,37.8 20,37.8 C23.2,37.8 26.1,36.5 28.1,34.5 C26.1,33.4 23.2,32.8 20,32.8 Z" id="XMLID_1275_" stroke="#45413C" fill="#FF87AF" fill-rule="nonzero" stroke-linecap="round" stroke-linejoin="round"></path>
        </g>
    </g>
</svg>