<?xml version="1.0" encoding="UTF-8"?>
<svg width="13px" height="13px" viewBox="0 0 13 13" version="1.1" xmlns="http://www.w3.org/2000/svg" xmlns:xlink="http://www.w3.org/1999/xlink">
    <title>搜索</title>
    <g id="搜索" stroke="none" stroke-width="1" fill="none" fill-rule="evenodd">
        <path d="M13,12.0109943 L9.02166768,8.08757509 C9.72555825,7.22147998 10.0269312,6.23417472 10.0269312,5.02958831 C10.0269312,2.25174669 7.78240264,0 5.01346559,0 C2.24502989,0 0,2.25174669 0,5.02958831 C0,7.80692698 2.24502989,10.0586737 5.01346559,10.0586737 C6.22020676,10.0586737 7.13644354,9.79078238 8.00176771,9.07808972 L11.9780946,13 L13,12.0109943 Z M1.00269312,5.0285824 C1.00269312,2.80600732 2.79801515,1.00440879 5.01346559,1.00440879 C7.22841469,1.00440879 9.02423806,2.80600732 9.02423806,5.0285824 C9.02473941,7.25115747 7.22891604,9.05225305 5.01346559,9.05225305 C2.79851649,9.05225305 1.00269312,7.25065451 1.00269312,5.0285824 Z" id="Search" fill="#8E8E93"></path>
    </g>
</svg>