<?xml version="1.0" encoding="UTF-8"?>
<svg width="26px" height="26px" viewBox="0 0 26 26" version="1.1" xmlns="http://www.w3.org/2000/svg" xmlns:xlink="http://www.w3.org/1999/xlink">
    <title>icon/彩色/经销店信息</title>
    <defs>
        <linearGradient x1="2.87052612%" y1="0%" x2="100%" y2="100%" id="linearGradient-1">
            <stop stop-color="#4268E6" offset="0%"></stop>
            <stop stop-color="#498EFA" offset="100%"></stop>
        </linearGradient>
    </defs>
    <g id="icon/彩色/经销店信息" stroke="none" stroke-width="1" fill="none" fill-rule="evenodd">
        <path d="M19.3636364,12 C19.0072727,12 18.7272727,12.2828571 18.7272727,12.6428571 L18.7272727,19.0714286 C18.7272727,19.4314286 18.4472727,19.7142857 18.0909091,19.7142857 L16.1818182,19.7142857 L16.1818182,15.2142857 C16.1818182,14.8542857 15.9018182,14.5714286 15.5454545,14.5714286 L10.4545455,14.5714286 C10.0981818,14.5714286 9.81818182,14.8542857 9.81818182,15.2142857 L9.81818182,19.7142857 L7.90909091,19.7142857 C7.55272727,19.7142857 7.27272727,19.4314286 7.27272727,19.0714286 L7.27272727,12.6428571 C7.27272727,12.2828571 6.99272727,12 6.63636364,12 C6.28,12 6,12.2828571 6,12.6428571 L6,19.0714286 C6,20.1385714 6.85272727,21 7.90909091,21 L18.0909091,21 C19.1472727,21 20,20.1385714 20,19.0714286 L20,12.6428571 C20,12.2828571 19.72,12 19.3636364,12 Z M15,20 L11,20 L11,16 L15,16 L15,20 Z M20.9507692,8.372 L19.72,5.372 C19.6338462,5.144 19.4,5 19.1538462,5 L6.84615385,5 C6.6,5 6.36615385,5.144 6.28,5.372 L5.04923077,8.372 C5.01230769,8.444 5,8.528 5,8.6 C5,9.92 6.10769231,11 7.46153846,11 C8.2,11 8.85230769,10.688 9.30769231,10.184 C9.76307692,10.688 10.4153846,11 11.1538462,11 C11.8923077,11 12.5446154,10.688 13,10.184 C13.4553846,10.688 14.1076923,11 14.8461538,11 C15.5846154,11 16.2369231,10.688 16.6923077,10.184 C17.1476923,10.688 17.8,11 18.5384615,11 C19.8923077,11 21,9.92 21,8.6 C21,8.528 20.9876923,8.444 20.9507692,8.372 Z M18.7272727,10 C18.0272727,10 17.4545455,9.4 17.4545455,8.66666667 C17.4545455,8.29333333 17.1745455,8 16.8181818,8 C16.4618182,8 16.1818182,8.29333333 16.1818182,8.66666667 C16.1818182,9.4 15.6090909,10 14.9090909,10 C14.2090909,10 13.6363636,9.4 13.6363636,8.66666667 C13.6363636,8.29333333 13.3563636,8 13,8 C12.6436364,8 12.3636364,8.29333333 12.3636364,8.66666667 C12.3636364,9.4 11.7909091,10 11.0909091,10 C10.3909091,10 9.81818182,9.4 9.81818182,8.66666667 C9.81818182,8.29333333 9.53818182,8 9.18181818,8 C8.82545455,8 8.54545455,8.29333333 8.54545455,8.66666667 C8.54545455,9.4 7.97272727,10 7.27272727,10 C6.61090909,10 6.06363636,9.46666667 6,8.78666667 L7.06909091,6 L18.9309091,6 L20,8.78666667 C19.9363636,9.46666667 19.3890909,10 18.7272727,10 Z" id="形状" fill="url(#linearGradient-1)" fill-rule="nonzero"></path>
    </g>
</svg>