<?xml version="1.0" encoding="UTF-8"?>
<svg width="60px" height="60px" viewBox="0 0 60 60" version="1.1" xmlns="http://www.w3.org/2000/svg" xmlns:xlink="http://www.w3.org/1999/xlink">
    <title>敬请期待</title>
    <defs>
        <linearGradient x1="12.5592412%" y1="0%" x2="89.721172%" y2="100%" id="linearGradient-1">
            <stop stop-color="#4268E6" offset="0%"></stop>
            <stop stop-color="#498EFA" offset="100%"></stop>
        </linearGradient>
    </defs>
    <g id="敬请期待" stroke="none" stroke-width="1" fill="none" fill-rule="evenodd">
        <path d="M50.998132,49.4124237 C50.760748,40.4384267 44.2574775,33 36.3792344,33 L24.6237813,33 C16.5924131,33 10.2869008,40.4226201 10,49.9224873 C10,51.1127684 10.8606406,52 12.0078729,52 L48.9013637,52 C49.5837809,52 50.1674735,51.6121392 50.4987601,51.048944 C50.5927246,50.916115 50.6815582,50.7781056 50.7559261,50.6292042 C50.9387242,50.25715 51.0130921,49.8322299 50.998132,49.4124237 Z M41.3614877,41.5615515 L36.7958359,46.2195699 C35.3717611,47.6761658 33.0912597,47.6761658 31.3785285,46.5087215 L27.3856018,43.6016925 L22.2521796,47.3870142 C21.7286344,47.7892905 21.3910428,47.9141031 21.1119288,47.9708426 C20.5884448,48.0726336 20.0159032,47.9367706 19.3991977,47.0980751 C18.8267173,46.2253785 18.8267173,45.058005 19.6830829,44.1852375 L24.5326199,40.3999866 C25.9567558,39.2381384 27.9530663,39.2381384 29.3822181,40.3999866 L33.3751448,43.3125409 L38.508567,38.6545225 C39.3649326,37.7818258 40.5051222,37.7818258 41.3614877,38.6545225 C42.2128374,39.52729 42.2128374,40.6888549 41.3614877,41.5615515 Z M24.2475579,28.3938965 C28.1148511,30.5353678 32.8802918,30.5353678 36.747585,28.3938965 C40.6148781,26.2520855 43,22.2899661 43,18.0013843 C43,11.3700863 37.4012823,6 30.5000353,6 C23.5938606,6 18,11.3756576 18,18.0013843 C17.9948934,22.2899661 20.3802648,26.2520855 24.2475579,28.3938965 Z" id="Fill-1" fill="url(#linearGradient-1)"></path>
    </g>
</svg>