<?xml version="1.0" encoding="UTF-8"?>
<svg width="40px" height="40px" viewBox="0 0 40 40" version="1.1" xmlns="http://www.w3.org/2000/svg" xmlns:xlink="http://www.w3.org/1999/xlink">
    <title>主页icon/员工列表</title>
    <defs>
        <linearGradient x1="-22.6431078%" y1="-5.32960465%" x2="162.411691%" y2="106.434342%" id="linearGradient-1">
            <stop stop-color="#4468DF" offset="0%"></stop>
            <stop stop-color="#5AADF9" offset="100%"></stop>
        </linearGradient>
    </defs>
    <g id="主页icon/员工列表" stroke="none" stroke-width="1" fill="none" fill-rule="evenodd">
        <path d="M35.6666668,17 L30.3333334,17 L30.3333333,17 C29.5969542,17 29,17.6715734 29,18.5 C29,19.3284266 29.5969542,20 30.3333333,20 L35.6666667,20 L35.6666667,20 C36.4030458,20 37,19.3284266 37,18.5 C37,17.6715734 36.4030458,17 35.6666667,17 M35.6666668,11 L30.3333334,11 L30.3333333,11 C29.5969542,11 29,11.6715734 29,12.5 C29,13.3284266 29.5969542,14 30.3333333,14 L35.6666667,14 L35.6666667,14 C36.4030458,14 37,13.3284266 37,12.5 C37,11.6715734 36.4030458,11 35.6666667,11 M30.3333334,9 L35.6666667,9 L35.6666667,9 C36.4030458,9 37,8.32842656 37,7.5 C37,6.67157344 36.4030458,6 35.6666667,6 L30.3333333,6 L30.3333333,6 C29.5969542,6 29,6.67157344 29,7.5 C29,8.32842656 29.5969542,9 30.3333333,9 M30.9304417,25.1255293 C30.7195326,25.0302685 26.9258053,23.341067 22.7445326,22.4944537 C23.2309417,22.0906018 23.6567144,21.6169813 24.0258053,21.1004265 L24.0258053,21.1004265 C24.9291512,19.8449843 25.4166643,18.3295751 25.4178053,16.773441 L25.4178053,12.3807121 L25.4178055,12.3807804 C25.4125249,10.0339484 24.3128025,7.82906 22.4545863,6.43968676 L22.4545866,6.43968703 C21.2176913,5.50554872 19.7185479,5.00083018 18.1783636,5 C14.1855909,5 10.9375909,8.3113179 10.9375909,12.3806968 L10.9375909,16.7734257 C10.9375909,19.1442112 12.0448636,21.2520234 13.7545455,22.6044579 C9.78022727,23.4779052 6.28440909,25.0289115 6.11172727,25.1080718 C4.90690909,25.6004761 4,26.9784029 4,28.3120537 L4,33.8344947 L4.07118182,34.0451417 C4.46268182,35.215105 5.51854545,36 6.69831818,36 L30.3016818,36 C31.6725909,36 32.8075455,34.9574984 32.9775909,33.6117723 L33,28.3120537 C33,27.673404 32.7864545,27.0240208 32.4371364,26.4672149 C32.0627727,25.8688163 31.5328636,25.376412 30.9304545,25.125514" id="路径-2" fill="url(#linearGradient-1)" fill-rule="nonzero"></path>
    </g>
</svg>