<?xml version="1.0" encoding="UTF-8"?>
<svg width="26px" height="26px" viewBox="0 0 26 26" version="1.1" xmlns="http://www.w3.org/2000/svg" xmlns:xlink="http://www.w3.org/1999/xlink">
    <title>icon/彩色/被介绍人信息</title>
    <defs>
        <linearGradient x1="2.87052612%" y1="6.0546875%" x2="100%" y2="93.9453125%" id="linearGradient-1">
            <stop stop-color="#4268E6" offset="0%"></stop>
            <stop stop-color="#498EFA" offset="100%"></stop>
        </linearGradient>
    </defs>
    <g id="icon/彩色/被介绍人信息" stroke="none" stroke-width="1" fill="none" fill-rule="evenodd">
        <g id="group" transform="translate(5.000000, 6.000000)" fill="url(#linearGradient-1)" fill-rule="nonzero">
            <path d="M14.7692308,13.7044232 C14.7614467,13.712461 14.7512248,13.7174404 14.7403077,13.7185125 L3.69230769,13.6909743 L3.69230769,11.3290923 C3.69230769,11.2125352 3.808,11.0300145 3.92492308,10.9800615 C3.95507692,10.967253 6.94215385,9.606353 9.23076923,9.606353 C11.5144615,9.606353 14.5064615,10.967253 14.5550769,10.9890274 C14.6553846,11.0306549 14.7692308,11.2125352 14.7692308,11.3297327 L14.7692308,13.7044232 Z M7.39384579,5.61971651 L7.39384579,3.52361028 C7.39384579,2.28721378 8.35533197,1.28402456 9.54338462,1.28084707 C10.7314785,1.28367301 11.6929897,2.28717187 11.6923081,3.52361028 L11.6923081,5.61971651 C11.6929897,6.85615492 10.7314785,7.85965378 9.54338462,7.86247972 C8.35505022,7.86000655 7.39316473,6.8564044 7.39384579,5.61971651 L7.39384579,5.61971651 Z M15.0332308,9.80808641 C14.9372308,9.76453761 13.2516923,8.99987192 11.36,8.58615831 C12.3330975,7.93951254 12.9223298,6.82125448 12.9230769,5.61971651 L12.9230769,3.52361028 C12.9230769,1.58056528 11.4067692,0 9.54338462,0 C7.67938462,0 6.16307692,1.58056528 6.16307692,3.52361028 L6.16307692,5.61971651 C6.16307692,6.8032192 6.72738462,7.85031167 7.58830769,8.48881394 C5.50830769,8.8634617 3.53538462,9.75941423 3.44307692,9.80168218 C2.88369231,10.041841 2.46153846,10.6982751 2.46153846,11.3303732 L2.46153846,13.8600461 L2.472,13.8600461 C2.55473051,14.5123213 3.08902143,15 3.72123077,15 L14.7403077,15 C15.2916923,15 15.7846154,14.6247118 15.9673846,14.0649816 L16,13.965716 L16,11.3290923 C16,10.6925113 15.5766154,10.0347963 15.0332308,9.80808641 Z M5.08430769,8.27427205 C5.104,8.27427205 5.12184615,8.28003586 5.14153846,8.28003586 C5.481406,8.28003586 5.75692308,7.99330848 5.75692308,7.63961233 C5.75692308,7.28591618 5.481406,6.9991888 5.14153846,6.9991888 C4.41198374,6.99812849 3.82119811,6.3821583 3.82153846,5.62291862 L3.82153846,3.93668346 C3.82153846,3.17906242 4.41353846,2.56169413 5.14153846,2.56169413 C5.481406,2.56169413 5.75692308,2.27496675 5.75692308,1.9212706 C5.75692308,1.56757445 5.481406,1.28084707 5.14153846,1.28084707 C3.7329109,1.28296561 2.5917858,2.47138059 2.59076923,3.93732388 L2.59076923,5.62355905 C2.59076923,6.27871232 2.82830769,6.87174451 3.20738462,7.33541115 C2.00123077,7.72158654 0.947076923,8.3299889 0.753846154,8.44526514 C0.314461538,8.66172829 0,9.17983093 0,9.69537187 L0,11.5346683 C0,11.8883644 0.275517077,12.1750918 0.615384615,12.1750918 C0.955252154,12.1750918 1.23076923,11.8883644 1.23076923,11.5346683 L1.23076923,9.69857399 C1.23860396,9.66421446 1.25398021,9.63221068 1.27569231,9.60507215 C1.29945086,9.59457898 1.32248061,9.5823816 1.34461538,9.56856801 C1.92984615,9.21377338 3.72615385,8.29348476 4.99384615,8.29348476 C5.02523077,8.29348476 5.05353846,8.27939544 5.08430769,8.27427205 L5.08430769,8.27427205 Z" id="Shape"></path>
        </g>
    </g>
</svg>