<?xml version="1.0" encoding="UTF-8"?>
<svg width="35px" height="35px" viewBox="0 0 35 35" version="1.1" xmlns="http://www.w3.org/2000/svg" xmlns:xlink="http://www.w3.org/1999/xlink">
    <title>新客户</title>
    <g id="新客户" stroke="none" stroke-width="1" fill="none" fill-rule="evenodd">
        <rect id="New-Friend-Icon-BG" fill="#FA9D3B" opacity="0.9" x="0" y="0" width="35" height="35" rx="5"></rect>
        <g id="Icon-/-New-Friend" transform="translate(5.500000, 7.500000)" fill="#FFFFFF">
            <path d="M13.5417,15.5 C13.5417,14.812 13.6642,14.1545 13.8787,13.5395 C13.2237,13.0675 12.6602,12.5385 12.2927,11.919 C12.1947,11.7535 12.2622,11.219 12.2887,11.1555 C12.3407,11.0305 12.6042,10.4685 13.0132,10.0315 C13.0932,9.959 13.1687,9.8805 13.2447,9.8025 C13.2687,9.7805 13.2897,9.759 13.3147,9.737 L13.3107,9.7355 C14.2767,8.707 14.8827,7.2555 14.8827,5.6415 C14.8827,2.526 12.6362,0 9.8652,0 C7.0942,0 4.8477,2.526 4.8477,5.6415 C4.8477,7.2555 5.4537,8.707 6.4197,9.7355 L6.4157,9.737 C6.4402,9.759 6.4612,9.7805 6.4852,9.8025 C6.5612,9.8805 6.6367,9.959 6.7172,10.0315 C7.1262,10.4685 7.3897,11.0305 7.4412,11.1555 C7.4677,11.219 7.5357,11.7535 7.4377,11.919 C5.8252,14.6365 0.4547,15.63 0.0387,17.5955 C-0.0173,18.264 -0.1003,19.9075 0.5007,19.9075 C1.1022,19.9075 9.8652,20 9.8652,20 C9.8652,20 12.9137,19.968 15.5377,19.9415 C14.3157,18.8505 13.5417,17.2675 13.5417,15.5" id="Fill-1"></path>
            <path d="M21.99995,16 L19.99995,16 L19.99995,18 L18.99995,18 L18.99995,16 L16.99995,16 L16.99995,15 L18.99995,15 L18.99995,13 L19.99995,13 L19.99995,15 L21.99995,15 L21.99995,16 Z M19.49995,11 C17.01445,11 14.99995,13.0145 14.99995,15.5 C14.99995,17.9855 17.01445,20 19.49995,20 C21.98545,20 23.99995,17.9855 23.99995,15.5 C23.99995,13.0145 21.98545,11 19.49995,11 L19.49995,11 Z" id="Fill-4"></path>
        </g>
    </g>
</svg>