<?xml version="1.0" encoding="UTF-8"?>
<svg width="26px" height="26px" viewBox="0 0 26 26" version="1.1" xmlns="http://www.w3.org/2000/svg" xmlns:xlink="http://www.w3.org/1999/xlink">
    <title>icon/彩色/客户信息</title>
    <defs>
        <linearGradient x1="8.25209234%" y1="0%" x2="94.2906574%" y2="100%" id="linearGradient-1">
            <stop stop-color="#4268E6" offset="0%"></stop>
            <stop stop-color="#498EFA" offset="100%"></stop>
        </linearGradient>
    </defs>
    <g id="icon/彩色/客户信息" stroke="none" stroke-width="1" fill="none" fill-rule="evenodd">
        <path d="M11.014,13.7135866 C9.87297658,13.01018 9.1735304,11.7329357 9.174,10.3536003 L9.174,8.90611919 C9.17400004,6.74882912 10.8557976,5 12.9304,5 C15.0050024,5 16.6868,6.74882912 16.6868,8.90611919 L16.6868,10.3531844 C16.687384,11.7158061 16.0047,12.9801517 14.8856,13.689046 C17.503845,14.3019461 19.6975644,16.1492324 20.8184,18.6849355 C20.8824,18.8292677 20.9992,18.9760955 20.9992,19.125003 L20.9992,19.24937 L21,19.24937 L21,21.5840572 C21,21.813776 20.8209139,22 20.6,22 L5.4,22 C5.1790861,22 5,21.813776 5,21.5840572 L5,19.503927 L5.008,19.5030951 C5.008,19.365834 5.0072,19.2260772 5.0164,19.0846566 C5.0256,18.9440679 5.1268,18.8088865 5.1864,18.674121 C6.29371618,16.1780986 8.44220657,14.3492736 11.014,13.7135866 L11.014,13.7135866 Z M6.2,19.3745688 L6.2,20.7521715 L19.8,20.7521715 L19.8,19.3741528 C18.6302534,16.5502446 15.9568848,14.7208233 13,14.7208233 C10.0431152,14.7208233 7.36974662,16.5502446 6.2,19.3741528 L6.2,19.3745688 Z M12.9304,6.2482444 C11.5185393,6.2482444 10.374,7.4384017 10.374,8.90653513 L10.374,10.3536003 C10.374,11.8217337 11.5185393,13.011891 12.9304,13.011891 C14.3422607,13.011891 15.4868,11.8217337 15.4868,10.3536003 L15.4868,8.90611919 C15.4865792,7.43831061 14.3423483,6.24847405 12.9308,6.2482444 L12.9304,6.2482444 Z" id="形状" fill="url(#linearGradient-1)" fill-rule="nonzero"></path>
    </g>
</svg>