<?xml version="1.0" encoding="UTF-8"?>
<svg width="60px" height="60px" viewBox="0 0 60 60" version="1.1" xmlns="http://www.w3.org/2000/svg" xmlns:xlink="http://www.w3.org/1999/xlink">
    <title>人工客服</title>
    <defs>
        <linearGradient x1="-22.6431078%" y1="-12.6992086%" x2="162.411691%" y2="113.951091%" id="linearGradient-1">
            <stop stop-color="#4468DF" offset="0%"></stop>
            <stop stop-color="#5AADF9" offset="100%"></stop>
        </linearGradient>
    </defs>
    <g id="人工客服" stroke="none" stroke-width="1" fill="none" fill-rule="evenodd">
        <path d="M29,10 C21.2678215,10 15,16.2684199 15,24 C15,31.7315801 21.2678215,38 29,38 C36.7321785,38 43,31.7315801 43,24 C42.996891,16.2684199 36.7321785,10 29,10 L29,10 Z M13.4285714,30 L13.4285714,16.9984039 C13.2524038,16.9984039 13.0762363,17.0047882 12.90625,17.0207489 C15.7589286,10.6236955 22.1102335,6.1674647 29.5,6.1674647 C36.8897665,6.1674647 43.2441621,10.6236955 46.09375,17.0207489 C45.9206731,17.0079804 45.7475962,16.9984039 45.5714286,16.9984039 L45.5714286,30 C49.1195055,30 52,27.0887661 52,23.500798 C52,21.0620012 50.6710165,18.9392265 48.7084478,17.8251688 C45.9453984,9.77777778 38.4010989,4 29.5,4 C20.5989011,4 13.0576923,9.77777778 10.2915522,17.8251688 C8.32898352,18.9360344 7,21.0620012 7,23.4976059 C7,27.0887661 9.87740385,30 13.4285714,30 L13.4285714,30 Z M42.95625,36 C39.278125,39.5086957 34.34375,41.6576087 28.915625,41.6576087 C23.496875,41.6576087 18.56875,39.5184783 14.89375,36.0195652 C8.31875,39.476087 4,45.6358696 4,54 L54,54 C54,45.6195652 49.603125,39.4532609 42.95625,36 L42.95625,36 Z" id="形状" fill="url(#linearGradient-1)" fill-rule="nonzero"></path>
    </g>
</svg>