<?xml version="1.0" encoding="UTF-8"?>
<svg width="26px" height="26px" viewBox="0 0 26 26" version="1.1" xmlns="http://www.w3.org/2000/svg" xmlns:xlink="http://www.w3.org/1999/xlink">
    <title>icon/彩色/服务订单信息</title>
    <defs>
        <linearGradient x1="13.307503%" y1="0%" x2="88.9273356%" y2="100%" id="linearGradient-1">
            <stop stop-color="#4268E6" offset="0%"></stop>
            <stop stop-color="#498EFA" offset="100%"></stop>
        </linearGradient>
    </defs>
    <g id="icon/彩色/服务订单信息" stroke="none" stroke-width="1" fill="none" fill-rule="evenodd">
        <path d="M11.6228029,13.5009338 C10.5560004,12.8146936 9.90205166,11.5686201 9.90249071,10.2229471 L9.90249071,8.81079136 C9.90249075,6.70614939 11.4748912,5 13.4145454,5 C15.3541996,5 16.9266,6.70614939 16.9266,8.81079136 L16.9266,10.2225413 C16.9271461,11.5519086 16.2888691,12.7853982 15.242564,13.4769921 C15.8588845,13.6271351 16.4508963,13.8543785 17.0085018,14.149795 C17.125657,14.211852 17.2004244,14.3404267 17.2016268,14.4818799 C17.2028004,14.6233332 17.130205,14.753365 17.0141115,14.8177284 L16.5331721,15.0851452 C16.4344686,15.1399532 16.3184401,15.1444124 16.2164103,15.097319 C16.0428831,15.017378 15.9060061,14.9581324 15.8054053,14.9187706 C12.366148,13.5879864 8.56565555,15.3846182 7.12194271,19.0237611 L7.12231669,20.3681496 L14.7365679,20.3681496 C14.8396801,20.3682104 14.9381941,20.4144624 15.0088259,20.495974 L15.4254407,20.9768374 C15.5164518,21.0817537 15.5412839,21.2353288 15.4886238,21.367596 C15.4359636,21.4998631 15.3158878,21.5855252 15.183101,21.5855252 L6.3739809,21.5855252 C6.16743695,21.5855252 6,21.403846 6,21.1797333 L6,19.150774 L6.00747962,19.1495566 C6.00747962,19.0156453 6.00673166,18.8792992 6.01533322,18.74133 C6.02393478,18.6041723 6.11855195,18.47229 6.1742751,18.3408134 C7.20956286,15.9057058 9.21829879,14.1215128 11.6228029,13.5013396 L11.6228029,13.5009338 Z M13.4145454,6.21778132 C12.094523,6.21778132 11.0244334,7.37889314 11.0244334,8.81119715 L11.0244334,10.2229471 C11.0244334,11.6552511 12.094523,12.8163629 13.4145454,12.8163629 C14.7345677,12.8163629 15.8046573,11.6552511 15.8046573,10.2229471 L15.8046573,8.81079136 C15.8044508,7.37880427 14.7346496,6.21800536 13.4149193,6.21778132 L13.4145454,6.21778132 Z M19.6330998,18.4402324 C19.7901718,18.2730462 19.8780573,18.0527012 19.8780573,17.8181535 C19.8780573,17.3263337 19.4879952,16.9185129 18.9973323,16.9185129 C18.6551397,16.9185129 18.3510933,17.1189741 18.2052407,17.4241296 C17.9958114,17.861979 17.4187589,17.861979 17.2093296,17.4241296 C17.063477,17.1189741 16.7594306,16.9185129 16.417238,16.9185129 C15.9262011,16.9185129 15.536513,17.3263337 15.536513,17.8181535 C15.536513,18.0522954 15.6240245,18.2718288 15.7803486,18.439015 C15.8087711,18.4694494 15.8330799,18.5019128 15.8540228,18.5359993 L17.6468872,20.5316837 L19.590466,18.4913622 C19.6035553,18.4739131 19.6177666,18.4568699 19.6330998,18.4406382 L19.6330998,18.4402324 Z M14.4145703,17.8185593 C14.4145703,16.6441976 15.3158643,15.7015377 16.417238,15.7015377 C16.9004214,15.7015377 17.3536862,15.8841494 17.7074721,16.1986381 C18.0715137,15.8760833 18.5273386,15.7004144 18.9973323,15.7015377 C20.098706,15.7015377 21,16.6441976 21,17.8185593 C20.9995472,18.3487224 20.8126894,18.8587227 20.4775487,19.2445119 C20.4603456,19.2688594 20.4416465,19.2919895 20.4203296,19.3139023 L18.0253559,21.8285945 C17.8033921,22.0618035 17.4494227,22.0563608 17.2336383,21.8164208 L14.9747937,19.3013228 C14.9482501,19.2720264 14.9244483,19.2399473 14.9037373,19.2055559 C14.5889204,18.8243032 14.4147509,18.3304586 14.4145703,17.8185593 L14.4145703,17.8185593 Z" id="形状" fill="url(#linearGradient-1)" fill-rule="nonzero"></path>
    </g>
</svg>