<?xml version="1.0" encoding="UTF-8"?>
<svg width="20px" height="20px" viewBox="0 0 20 20" version="1.1" xmlns="http://www.w3.org/2000/svg" xmlns:xlink="http://www.w3.org/1999/xlink">
    <title>addteam</title>
    <defs>
        <linearGradient x1="8.57761085%" y1="0%" x2="93.9453125%" y2="100%" id="linearGradient-1">
            <stop stop-color="#4268E6" offset="0%"></stop>
            <stop stop-color="#498EFA" offset="100%"></stop>
        </linearGradient>
    </defs>
    <g id="addteam" stroke="none" stroke-width="1" fill="none" fill-rule="evenodd">
        <g fill-rule="nonzero">
            <rect id="矩形" fill="#000000" opacity="0" x="0" y="0" width="20" height="20"></rect>
            <path d="M17.8453417,15.0486277 L16.2987586,15.0486277 L16.2987586,13.4952739 C16.2987586,13.4098394 16.2291623,13.3399385 16.1441003,13.3399385 L15.2161504,13.3399385 C15.1310883,13.3399385 15.0614921,13.4098394 15.0614921,13.4952739 L15.0614921,15.0486277 L13.514909,15.0486277 C13.4298469,15.0486277 13.3602507,15.1185287 13.3602507,15.2039631 L13.3602507,16.1359754 C13.3602507,16.2214099 13.4298469,16.2913108 13.514909,16.2913108 L15.0614921,16.2913108 L15.0614921,17.8446646 C15.0614921,17.9300991 15.1310883,18 15.2161504,18 L16.1441003,18 C16.2291623,18 16.2987586,17.9300991 16.2987586,17.8446646 L16.2987586,16.2913108 L17.8453417,16.2913108 C17.9304038,16.2913108 18,16.2214099 18,16.1359754 L18,15.2039631 C18,15.1185287 17.9304038,15.0486277 17.8453417,15.0486277 Z M7.82154992,9.73615765 C7.80415086,9.56723042 7.79448471,9.3963615 7.79448471,9.22355088 C7.79448471,8.91482181 7.82348315,8.61385951 7.87761356,8.32066397 C7.89114616,8.25076305 7.85441481,8.17892044 7.79061826,8.14979505 C7.52769913,8.03135182 7.28604552,7.86824967 7.0772568,7.66243029 C6.57848375,7.17312383 6.30976493,6.51100676 6.32909722,5.81005585 C6.34649628,5.18677263 6.59588281,4.59455648 7.0308593,4.14796726 C7.50836684,3.65671911 8.15019883,3.38876557 8.83262863,3.39653234 C9.44932864,3.40235742 10.0447631,3.64118557 10.4952055,4.06447449 C10.6479305,4.20815972 10.7793901,4.36737848 10.8895842,4.53824741 C10.9282487,4.59843987 11.0036447,4.62368187 11.0693744,4.60038156 C11.4096227,4.48193833 11.7692033,4.39844556 12.13845,4.35961172 C12.2467108,4.34796156 12.3085742,4.23146002 12.2602434,4.13437541 C11.6319441,2.88586727 10.3482801,2.0237559 8.86356029,2.00045559 C6.72154268,1.96744682 4.93523919,3.73244511 4.93523919,5.88384016 C4.93523919,7.10322291 5.49394234,8.19057059 6.36969503,8.90317166 C5.75492824,9.18860042 5.18849218,9.58276396 4.69745204,10.0759538 C3.63804261,11.1380595 3.03874166,12.5399613 3.00003776,14.0370061 C2.99814385,14.1243822 3.06774009,14.1962248 3.15473539,14.1962248 L4.23927679,14.1962248 C4.32240564,14.1962248 4.39200188,14.1302073 4.3939351,14.0467145 C4.43066645,12.920533 4.88497524,11.8661941 5.68339877,11.0662169 C6.25176806,10.4953593 6.94773046,10.0992541 7.70748941,9.90702657 C7.78095211,9.88566795 7.83121606,9.81382534 7.82154992,9.73615765 L7.82154992,9.73615765 Z M16.530746,9.22355088 C16.530746,7.09933953 14.8314379,5.37317509 12.7242184,5.34016632 C10.5822008,5.30715755 8.79783051,7.07215583 8.79783051,9.22355088 C8.79783051,10.4429336 9.35846688,11.5302813 10.2322863,12.2428824 C9.61945278,12.5283111 9.05494995,12.920533 8.56197658,13.4156645 C7.50256715,14.4777702 6.9032662,15.879672 6.8645623,17.3747751 C6.86266839,17.4621512 6.93226463,17.5339939 7.01925993,17.5339939 L8.10186811,17.5339939 C8.18499695,17.5339939 8.25459319,17.4679763 8.25652642,17.3844835 C8.29325777,16.258302 8.74756655,15.2039631 9.54599008,14.4039859 C10.3792117,13.5671165 11.4850187,13.1069354 12.6642883,13.1069354 C14.798573,13.1069354 16.530746,11.3691209 16.530746,9.22355088 Z M14.4138604,10.9807824 C13.946019,11.4506719 13.3254526,11.708917 12.6642883,11.708917 C12.003124,11.708917 11.3825575,11.4506719 10.9147161,10.9807824 C10.4410751,10.5050678 10.1839556,9.87207611 10.1897553,9.19830888 C10.195555,8.56143381 10.448808,7.94591736 10.8915174,7.48961967 C11.3554923,7.01196337 11.9760588,6.74595153 12.6391563,6.73818476 C13.2945209,6.73235968 13.9305532,6.98866307 14.3983946,7.44884414 C14.8778354,7.92067536 15.1407545,8.55172535 15.1407545,9.22355088 C15.1388212,9.88760964 14.8817018,10.5108929 14.4138604,10.9807824 L14.4138604,10.9807824 Z" id="形状" fill="url(#linearGradient-1)"></path>
        </g>
    </g>
</svg>