<?xml version="1.0" encoding="UTF-8"?>
<svg width="14px" height="15px" viewBox="0 0 14 15" version="1.1" xmlns="http://www.w3.org/2000/svg" xmlns:xlink="http://www.w3.org/1999/xlink">
    <title>编组 6@2x</title>
    <defs>
        <linearGradient x1="33.9628874%" y1="0%" x2="67.0138889%" y2="100%" id="linearGradient-1">
            <stop stop-color="#4268E6" offset="0%"></stop>
            <stop stop-color="#498EFA" offset="100%"></stop>
        </linearGradient>
    </defs>
    <g id="店总" stroke="none" stroke-width="1" fill="none" fill-rule="evenodd">
        <g id="处理中-置换新车-订单详情-" transform="translate(-341.000000, -197.000000)">
            <g id="右箭头-颜色" transform="translate(341.000000, 197.000000)">
                <g id="右箭头" stroke-width="1" fill-rule="evenodd" transform="translate(0.000000, 1.000000)"></g>
                <path d="M5.40522415,1.234189 L10.7590211,6.43482564 L10.759021,6.43482562 C11.0803263,6.74699572 11.0803263,7.25302225 10.7590211,7.56519085 L5.40522418,12.7658275 L5.40522423,12.7658274 C5.08376,13.0780575 4.56256253,13.0780575 4.24109829,12.7658276 C3.91963406,12.4535975 3.91963406,11.9473716 4.24109818,11.6351416 L9.01316159,6.99984267 L4.24109818,2.36485854 L4.24109818,2.36485853 C3.91963394,2.05262848 3.91963394,1.5464026 4.24109818,1.23417254 C4.56256242,0.921942485 5.08375989,0.921942485 5.40522412,1.23417255 L5.40522415,1.234189 Z" id="路径备份" fill="url(#linearGradient-1)" fill-rule="nonzero"></path>
            </g>
            <g id="右箭头2" transform="translate(341.000000, 198.000000)">
                <g id="右箭头"></g>
                <path d="M5.40522415,0.234188998 L10.7590211,5.43482564 L10.759021,5.43482562 C11.0803263,5.74699572 11.0803263,6.25302225 10.7590211,6.56519085 L5.40522418,11.7658275 L5.40522423,11.7658274 C5.08376,12.0780575 4.56256253,12.0780575 4.24109829,11.7658276 C3.91963406,11.4535975 3.91963406,10.9473716 4.24109818,10.6351416 L9.01316159,5.99984267 L4.24109818,1.36485854 L4.24109818,1.36485853 C3.91963394,1.05262848 3.91963394,0.546402599 4.24109818,0.234172542 C4.56256242,-0.0780575151 5.08375989,-0.0780575151 5.40522412,0.234172549 L5.40522415,0.234188998 Z" id="路径备份" fill="url(#linearGradient-1)" fill-rule="nonzero"></path>
            </g>
        </g>
    </g>
</svg>