<?xml version="1.0" encoding="UTF-8"?>
<svg width="20px" height="20px" viewBox="0 0 20 20" version="1.1" xmlns="http://www.w3.org/2000/svg" xmlns:xlink="http://www.w3.org/1999/xlink">
    <title>audit</title>
    <defs>
        <linearGradient x1="13.307503%" y1="0%" x2="88.9273356%" y2="100%" id="linearGradient-1">
            <stop stop-color="#4268E6" offset="0%"></stop>
            <stop stop-color="#498EFA" offset="100%"></stop>
        </linearGradient>
    </defs>
    <g id="audit" stroke="none" stroke-width="1" fill="none" fill-rule="evenodd">
        <g fill-rule="nonzero">
            <rect id="矩形" fill="#000000" opacity="0" x="0" y="0" width="20" height="20"></rect>
            <path d="M6.19148936,4.39220183 C6.1037234,4.39220183 6.03191489,4.46238532 6.03191489,4.54816514 L6.03191489,5.48394495 C6.03191489,5.56972477 6.1037234,5.63990826 6.19148936,5.63990826 L13.8510638,5.63990826 C13.9388298,5.63990826 14.0106383,5.56972477 14.0106383,5.48394495 L14.0106383,4.54816514 C14.0106383,4.46238532 13.9388298,4.39220183 13.8510638,4.39220183 L6.19148936,4.39220183 Z M9.86170213,7.19954128 L6.19148936,7.19954128 C6.1037234,7.19954128 6.03191489,7.26972477 6.03191489,7.35550459 L6.03191489,8.2912844 C6.03191489,8.37706422 6.1037234,8.44724771 6.19148936,8.44724771 L9.86170213,8.44724771 C9.94946809,8.44724771 10.0212766,8.37706422 10.0212766,8.2912844 L10.0212766,7.35550459 C10.0212766,7.26972477 9.94946809,7.19954128 9.86170213,7.19954128 Z M8.90425532,16.1284404 L4.43617021,16.1284404 L4.43617021,2.40366972 L15.606383,2.40366972 L15.606383,8.64220183 C15.606383,8.72798165 15.6781915,8.79816514 15.7659574,8.79816514 L16.8829787,8.79816514 C16.9707447,8.79816514 17.0425532,8.72798165 17.0425532,8.64220183 L17.0425532,1.62385321 C17.0425532,1.2787844 16.7573138,1 16.4042553,1 L3.63829787,1 C3.28523936,1 3,1.2787844 3,1.62385321 L3,16.9082569 C3,17.2533257 3.28523936,17.5321101 3.63829787,17.5321101 L8.90425532,17.5321101 C8.99202128,17.5321101 9.06382979,17.4619266 9.06382979,17.3761468 L9.06382979,16.2844037 C9.06382979,16.1986239 8.99202128,16.1284404 8.90425532,16.1284404 Z M17.6808511,14.412844 L14.8085106,14.412844 L14.8085106,13.6993119 C15.7320479,13.4302752 16.4042553,12.5958716 16.4042553,11.6055046 C16.4042553,10.3987385 15.4049202,9.42201835 14.1702128,9.42201835 C12.9355053,9.42201835 11.9361702,10.3987385 11.9361702,11.6055046 C11.9361702,12.593922 12.6083777,13.4302752 13.5319149,13.6993119 L13.5319149,14.412844 L10.6595745,14.412844 C10.4840426,14.412844 10.3404255,14.553211 10.3404255,14.7247706 L10.3404255,17.6880734 C10.3404255,17.859633 10.4840426,18 10.6595745,18 L17.6808511,18 C17.856383,18 18,17.859633 18,17.6880734 L18,14.7247706 C18,14.553211 17.856383,14.412844 17.6808511,14.412844 Z M13.1728723,11.6055046 C13.1728723,11.0674312 13.6196809,10.6307339 14.1702128,10.6307339 C14.7207447,10.6307339 15.1675532,11.0674312 15.1675532,11.6055046 C15.1675532,12.143578 14.7207447,12.5802752 14.1702128,12.5802752 C13.6196809,12.5802752 13.1728723,12.143578 13.1728723,11.6055046 Z M16.7632979,16.7912844 L11.5771277,16.7912844 L11.5771277,15.6215596 L16.7632979,15.6215596 L16.7632979,16.7912844 Z" id="形状" fill="url(#linearGradient-1)"></path>
        </g>
    </g>
</svg>