<?xml version="1.0" encoding="UTF-8"?>
<svg width="26px" height="26px" viewBox="0 0 26 26" version="1.1" xmlns="http://www.w3.org/2000/svg" xmlns:xlink="http://www.w3.org/1999/xlink">
    <title>icon/彩色/评估车辆信息</title>
    <defs>
        <linearGradient x1="2.87052612%" y1="15.2777778%" x2="100%" y2="84.7222222%" id="linearGradient-1">
            <stop stop-color="#4268E6" offset="0%"></stop>
            <stop stop-color="#498EFA" offset="100%"></stop>
        </linearGradient>
        <linearGradient x1="2.87052612%" y1="44.4444444%" x2="100%" y2="55.5555556%" id="linearGradient-2">
            <stop stop-color="#4268E6" offset="0%"></stop>
            <stop stop-color="#498EFA" offset="100%"></stop>
        </linearGradient>
    </defs>
    <g id="icon/彩色/评估车辆信息" stroke="none" stroke-width="1" fill="none" fill-rule="evenodd">
        <path d="M20.4812577,10.077904 L21.6764473,9.56093014 C21.9576381,9.43906607 22.0784634,9.1306308 21.9466559,8.87223875 C21.814292,8.61335346 21.4798178,8.50211264 21.198627,8.62346452 L19.8798304,9.19389617 L19.6042646,6.23882503 C19.6042646,5.55569188 19.0006739,5 18.2587027,5 L7.6841814,5 C6.94218963,5 6.33806314,5.55571083 6.34026783,6.19483331 L6.06457845,9.16984205 L4.80137303,8.62344555 C4.52236632,8.50260585 4.1862437,8.61282228 4.0533441,8.87221978 C3.92153657,9.13061185 4.04236186,9.43904711 4.32355267,9.56091117 L5.51690853,10.0770883 C4.87017175,10.1239255 4.35930163,10.6217016 4.36035246,11.1976915 L4.00282167,16.2850046 C4.00282167,16.9236339 4.56687224,17.442941 5.25996933,17.442941 L5.68067379,17.442941 L5.68067379,18.6666089 C5.68067379,19.4018151 6.33039824,20 7.1289496,20 L8.05766014,20 C8.85621152,20 9.50593596,19.4018151 9.50593596,18.6666089 L9.50593596,17.442941 L16.451804,17.442941 L16.451804,18.6666089 C16.451804,19.4018151 17.1015285,20 17.9000798,20 L18.8293467,20 C19.6278981,20 20.2776225,19.4018151 20.2776225,18.6666089 L20.2776225,17.442941 L20.726885,17.442941 C21.4205384,17.442941 21.9845889,16.9236339 21.9834763,16.2516362 L21.6281296,11.2310789 C21.6281296,10.6268425 21.1231318,10.1297493 20.4812577,10.077904 Z M7.6841814,6.03556013 L18.2587233,6.03556013 C18.3806406,6.03556013 18.4795014,6.12657879 18.4817061,6.28281675 L18.833447,10.0731425 L7.10923101,10.0731425 L7.46286754,6.23882503 C7.46284693,6.12657881 7.56226407,6.03556013 7.6841814,6.03556013 Z M8.38113155,18.6665899 C8.38113155,18.8309281 8.23613708,18.9644209 8.05763955,18.9644209 L7.12892899,18.9644209 C6.95043144,18.9644209 6.80543699,18.8309281 6.80543699,18.6665899 L6.80543699,17.442922 L8.38113155,17.442922 L8.38113155,18.6665899 Z M19.1528387,18.6665899 C19.1528387,18.8309281 19.0078443,18.9644209 18.8293467,18.9644209 L17.9000798,18.9644209 C17.7215823,18.9644209 17.5765878,18.8309281 17.5765878,18.6665899 L17.5765878,17.442922 L19.1528181,17.442922 L19.1528181,18.6665899 L19.1528387,18.6665899 Z M20.7268643,16.4073619 L5.25996933,16.4073619 C5.18692608,16.4073619 5.12760547,16.3522537 5.12651342,16.3183731 L5.48404421,11.2310789 C5.48404421,11.1638298 5.54336482,11.1087026 5.61640807,11.1087026 L20.3704462,11.1087026 C20.4434894,11.1087026 20.5033458,11.1638108 20.5044584,11.2644473 L20.8598051,16.2850046 C20.8598051,16.3522537 20.7999076,16.4073619 20.7268643,16.4073619 Z" id="形状" fill="url(#linearGradient-1)" fill-rule="nonzero"></path>
        <path d="M9,12 C7.89746205,12 7,12.8974408 7,14 C7,15.1025379 7.8974408,16 9,16 C10.1025379,16 11,15.1025592 11,14 C11,12.8974408 10.1025592,12 9,12 L9,12 Z M8.99998734,15 C8.44870577,15 8,14.5512942 8,14.0000127 C8,13.4487311 8.44870577,13 8.99998734,13 C9.55126891,13 10,13.4487058 10,14.0000127 C10,14.5512942 9.55126891,15 8.99998734,15 Z M17.0002763,12 C15.8973168,12 15,12.8974408 15,14 C15,15.1025379 15.8973168,16 17.0002763,16 C18.1026619,16 19,15.1025592 19,14 C19,12.8974408 18.1026619,12 17.0002763,12 Z M17.000329,15 C16.4485525,15 16,14.5512942 16,14.0000127 C16,13.4487311 16.4485525,13 17.000329,13 C17.5514222,13 18,13.4487058 18,14.0000127 C18,14.5512942 17.5514222,15 17.000329,15 Z" id="形状" fill="url(#linearGradient-2)" fill-rule="nonzero"></path>
    </g>
</svg>