<?xml version="1.0" encoding="UTF-8"?>
<svg width="23px" height="23px" viewBox="0 0 23 23" version="1.1" xmlns="http://www.w3.org/2000/svg" xmlns:xlink="http://www.w3.org/1999/xlink">
    <title>编组</title>
    <defs>
        <linearGradient x1="17.7943178%" y1="14.1021662%" x2="87.7344261%" y2="91.6970747%" id="linearGradient-1">
            <stop stop-color="#4268E6" offset="0%"></stop>
            <stop stop-color="#498EFA" offset="100%"></stop>
        </linearGradient>
    </defs>
    <g id="店总" stroke="none" stroke-width="1" fill="none" fill-rule="evenodd">
        <g id="我的-头像" transform="translate(-212.000000, -148.000000)">
            <g id="头像-编辑备份-3" transform="translate(212.000000, 148.000000)">
                <g id="编组">
                    <circle id="椭圆形备份-2" fill="url(#linearGradient-1)" cx="11.5" cy="11.5" r="11.5"></circle>
                    <path d="M15.8721437,10.2278925 L15.8721437,10.2278925 C15.8721438,9.99680689 16.0584614,9.80947443 16.2882953,9.80947443 C16.5181291,9.80947447 16.7044469,9.99680689 16.7044469,10.2278925 L16.7044469,15.1641201 C16.7044469,16.1779096 15.8868095,17 14.8775985,17 L7.8259353,17 C6.81763734,17 6,16.1779096 6,15.1641201 L6,8.07312265 C6,7.0593332 6.81763734,6.23908962 7.8259353,6.23908962 L12.7950092,6.23908962 L12.7950092,6.23908962 C13.0245906,6.22824719 13.2194449,6.40658407 13.2302286,6.63741477 C13.2410123,6.86824656 13.0636414,7.06416202 12.8340611,7.07500445 C12.8210512,7.07561887 12.8080198,7.07561887 12.79501,7.07500445 L7.8268491,7.07500445 C7.27686859,7.07500445 6.83138437,7.5229149 6.83138437,8.0749695 L6.83138437,15.1650381 C6.83138437,15.718014 7.27686859,16.1659245 7.82593282,16.1659245 L14.8785198,16.1659245 C15.4285003,16.1659245 15.8730683,15.718014 15.8730683,15.1650381 L15.8730683,10.2278817 L15.8721437,10.2278925 Z M16.8795243,6.1211287 L16.8795244,6.12112871 C17.0400037,6.28226177 17.040181,6.54368867 16.8799208,6.70504098 C16.8797887,6.70517394 16.8796566,6.70530679 16.8795243,6.70543956 L12.2248524,11.3854623 L12.2248523,11.3854623 C12.0553295,11.5384724 11.7945366,11.524337 11.6423553,11.3538906 C11.5014744,11.1961002 11.5016613,10.9568755 11.6427893,10.7993076 L16.2974613,6.12113179 L16.2974613,6.12113179 C16.4577215,5.9597784 16.7177323,5.95960019 16.8782106,6.12073321 C16.8783428,6.12086598 16.878475,6.12099884 16.878607,6.12113179 L16.8795243,6.1211287 Z" id="形状备份-9" fill="#FFFFFF" fill-rule="nonzero"></path>
                </g>
            </g>
        </g>
    </g>
</svg>