<?xml version="1.0" encoding="UTF-8"?>
<svg width="26px" height="26px" viewBox="0 0 26 26" version="1.1" xmlns="http://www.w3.org/2000/svg" xmlns:xlink="http://www.w3.org/1999/xlink">
    <title>icon/彩色/c卡信息</title>
    <defs>
        <linearGradient x1="2.87052612%" y1="7.79457987%" x2="100%" y2="92.2054201%" id="linearGradient-1">
            <stop stop-color="#4268E6" offset="0%"></stop>
            <stop stop-color="#498EFA" offset="100%"></stop>
        </linearGradient>
    </defs>
    <g id="icon/彩色/c卡信息" stroke="none" stroke-width="1" fill="none" fill-rule="evenodd">
        <g id="拍卖2" transform="translate(5.000000, 5.000000)" fill-rule="nonzero">
            <g id="Group">
                <rect id="Rectangle-path" fill="#000000" opacity="0" x="0" y="0" width="14.6941704" height="14.6941704"></rect>
                <path d="M15.5827192,10.2661901 L7.54165898,5.2924998 L8.62674902,3.53743245 L9.50528215,4.0804772 C9.99002455,4.37965154 10.6243541,4.23073069 10.9248611,3.74598829 C11.2250349,3.26024641 11.073782,2.62558368 10.5903722,2.32540987 L9.71183907,1.78236512 L7.95777119,0.697275078 L7.08023752,0.154230328 C6.59449564,-0.144944014 5.95983291,0.00397683946 5.66065855,0.489718716 C5.36048474,0.974461116 5.5094056,1.61012332 5.994148,1.90929768 L6.87168168,2.4533419 L5.33549802,4.93868784 L5.15426099,5.23086591 L3.61707787,7.71721131 L2.74054367,7.17416656 C2.25480179,6.87499222 1.61913959,7.02424623 1.31996524,7.50865547 C1.01979143,7.99339787 1.16971176,8.62906008 1.65445416,8.92923389 L2.53198783,9.47127918 L4.28705518,10.5573687 L5.16392251,11.099414 C5.64866491,11.3992546 6.2829945,11.2503338 6.58350147,10.764925 C6.88367529,10.2791832 6.73375496,9.64452044 6.24901256,9.34401346 L5.37147889,8.80230133 L6.45656893,7.04723398 L14.4989618,12.020258 C14.9020809,12.2701252 15.4341315,12.1451916 15.6839987,11.7420725 L15.8652358,11.4478954 C16.1147698,11.0447763 15.9898362,10.5160573 15.5827192,10.2661901 Z M0,12.6952326 L6.32996954,12.6952326 L6.32996954,14.6941703 L0,14.6941703 L0,12.6952326 Z" id="Shape" fill="url(#linearGradient-1)"></path>
            </g>
        </g>
    </g>
</svg>