<?xml version="1.0" encoding="UTF-8"?>
<svg width="26px" height="26px" viewBox="0 0 26 26" version="1.1" xmlns="http://www.w3.org/2000/svg" xmlns:xlink="http://www.w3.org/1999/xlink">
    <title>icon/彩色/意向车型</title>
    <defs>
        <linearGradient x1="8.94499164%" y1="0%" x2="93.5555556%" y2="100%" id="linearGradient-1">
            <stop stop-color="#4268E6" offset="0%"></stop>
            <stop stop-color="#498EFA" offset="100%"></stop>
        </linearGradient>
    </defs>
    <g id="icon/彩色/意向车型" stroke="none" stroke-width="1" fill="none" fill-rule="evenodd">
        <path d="M18.8389451,7.07814246 L7.1610549,7.07814246 L7.1610549,19.4343738 L12.513905,17.0491633 C12.8717896,16.8895986 13.2886978,16.8911879 13.6451595,17.0534759 L18.8389451,19.4182017 L18.8389451,7.07814246 Z M6.26936474,6 L19.7306353,6 C19.8792503,6 20,6.11176744 20,6.25012905 L20,20.7464732 C20,20.8327792 19.9520531,20.9129802 19.8731932,20.9586566 C19.7943334,21.0043329 19.6956861,21.0090311 19.6122077,20.9710862 L13.1335213,18.0216478 C13.0965432,18.0049029 13.0533511,18.0047706 13.0162548,18.0212884 L6.38585725,20.9753988 C6.30242613,21.0125585 6.2042946,21.0073516 6.12596489,20.9616089 C6.04763517,20.9158661 6,20.835991 6,20.750067 L6,6.25012905 C6,6.11176744 6.12036269,6 6.26936474,6 Z M12.7604357,13.8424083 C12.9837054,13.6921736 13.2856594,13.6921736 13.5089291,13.8424083 L14.3170233,14.3865108 L14.0097307,13.5045903 C13.9245867,13.2609301 14.0182451,12.9942695 14.2411677,12.8433296 L15.0481008,12.2977895 L14.0495936,12.2967114 C13.7740366,12.2967114 13.5298281,12.1313962 13.444297,11.8880954 L13.1346824,11.0068936 L12.8250677,11.8880954 C12.7395497,12.1315779 12.4951844,12.2964355 12.2193841,12.2967114 L11.2208769,12.2977895 L12.028197,12.8433296 C12.2511196,12.9942695 12.344391,13.2609301 12.259634,13.5045903 L11.9519544,14.3865108 L12.7604357,13.8424083 L12.7604357,13.8424083 Z M11.6276331,15.7589862 C11.4041119,15.9094202 11.1017402,15.90925 10.8784156,15.7585645 C10.655091,15.6078789 10.5615105,15.3408852 10.6465417,15.0970067 L11.2197158,13.4528395 L9.71537568,12.4357917 C9.49230518,12.2848841 9.39906771,12.017867 9.48433278,11.7741221 C9.56959785,11.5303773 9.81401892,11.36521 10.0900094,11.3648369 L11.9515674,11.3626806 L12.5282247,9.71959149 C12.6139231,9.47603984 12.8585617,9.31127793 13.1344889,9.31127793 C13.410416,9.31127793 13.6550546,9.47603984 13.740753,9.71959149 L14.3177973,11.3626806 L16.1793553,11.3644775 C16.4553458,11.3648507 16.6997669,11.5300179 16.785032,11.7737628 C16.870297,12.0175076 16.7770596,12.2845247 16.5539891,12.4354324 L15.0492619,13.4524801 L15.622436,15.0970067 C15.7074672,15.3408852 15.6138867,15.6078789 15.3905621,15.7585645 C15.1672375,15.90925 14.8648658,15.9094202 14.6413446,15.7589862 L13.1346824,14.7444541 L11.6276331,15.7589862 L11.6276331,15.7589862 Z M12.218223,11.3623212 L11.9511804,11.3623212 L11.8683585,11.5984344 C11.9177317,11.4577617 12.0588895,11.3624985 12.218223,11.3623212 Z" id="形状" fill="url(#linearGradient-1)" fill-rule="nonzero"></path>
    </g>
</svg>