<?xml version="1.0" encoding="UTF-8"?>
<svg width="60px" height="60px" viewBox="0 0 60 60" version="1.1" xmlns="http://www.w3.org/2000/svg" xmlns:xlink="http://www.w3.org/1999/xlink">
    <title>常见问题</title>
    <defs>
        <linearGradient x1="-22.6431078%" y1="-12.6992086%" x2="162.411691%" y2="113.951091%" id="linearGradient-1">
            <stop stop-color="#4468DF" offset="0%"></stop>
            <stop stop-color="#5AADF9" offset="100%"></stop>
        </linearGradient>
    </defs>
    <g id="常见问题" stroke="none" stroke-width="1" fill="none" fill-rule="evenodd">
        <path d="M54,29 C54,15.2 42.8,4 29,4 C15.2,4 4,15.2 4,29 C4,42.1 14.1,52.825 26.925,53.9 L26.925,54 L47.75,54 L47.75,45.5 C51.775,40.95 54,35.075 54,29 Z M29,43 C27.9090909,43 27,42.1168831 27,41 C27,39.9090909 27.8831169,39 29,39 C30.0909091,39 31,39.8831169 31,41 C31,42.1168831 30.0909091,43 29,43 Z M36.2261119,26.9919926 C34.3038738,29.6941546 32.0071737,30.8450755 31.0335725,32.5714567 C30.8338595,32.946757 30.4593975,35.0734586 30.4593975,35.2736187 C30.2596845,36.4245396 29.5107605,37 28.5371594,37 C27.5885224,37 26.8146343,36.2243794 26.8146343,35.2736187 C26.8146343,34.4979982 27.3888093,32.1961565 27.5885224,31.620696 C27.7882354,31.0452356 28.1626974,30.4697752 28.5371594,30.0694549 C28.9116214,29.4939945 29.4857964,29.1186942 30.2596845,28.3430736 C30.6341464,27.9677733 32.1819226,26.6166923 32.3816357,26.216372 C32.5813487,26.0162119 32.7560976,25.6409116 32.9558107,25.4407515 C33.1555237,25.0654512 33.7296988,23.1389098 32.0071737,21.3875085 C30.8588236,20.4367478 29.7104736,20.2365876 29.1362985,20.2365876 C26.8395984,20.2365876 25.2918223,21.5876686 24.9173603,24.4649707 C24.9173603,24.4649707 24.3431853,26.0162119 22.9951222,26.191352 C22.0464852,26.191352 21.2725971,25.6158916 21.072884,24.6401109 C21.072884,24.6401109 20.6984221,23.2890299 21.6470591,21.3624884 C22.4209471,19.8112473 23.5692972,18.2850262 25.8659973,17.5094056 C28.3624105,16.733785 30.6591106,16.9339452 32.2068867,17.5094056 C36.425825,19.2357869 37,22.8887096 37,23.8644903 C37,24.4899908 36.8002869,26.216372 36.2261119,26.9919926 L36.2261119,26.9919926 Z" id="形状" fill="url(#linearGradient-1)" fill-rule="nonzero"></path>
    </g>
</svg>