<?xml version="1.0" encoding="UTF-8"?>
<svg width="12px" height="14px" viewBox="0 0 12 14" version="1.1" xmlns="http://www.w3.org/2000/svg" xmlns:xlink="http://www.w3.org/1999/xlink">
    <title>积分</title>
    <g id="积分" stroke="none" stroke-width="1" fill="none" fill-rule="evenodd">
        <path d="M4.84540495,5.05227764 C6.33984166,5.05227764 7.89406583,4.69326091 8.82757391,4.00863385 L8.82757391,5.25489779 L9.69230769,5.25489779 L9.69230769,2.526207 C9.69230769,0.885747325 7.19583824,0 4.84690274,0 C2.49796725,0 0,0.885747325 0,2.526207 L0,9.973793 C0,11.6142527 2.49646945,12.5 4.84540495,12.5 L4.84540495,11.5569845 C2.37814272,11.5569845 0.863235981,10.6345583 0.863235981,9.97392936 L0.863235981,7.73501756 C1.79674406,8.41800837 3.34959524,8.77866134 4.84540495,8.77866134 L4.84540495,7.83387329 C2.37814272,7.83387329 0.863235981,6.91158344 0.863235981,6.25095446 L0.863235981,4.01040645 C1.79674406,4.69326091 3.35109305,5.05227764 4.84540495,5.05227764 Z M4.84615385,1 C7.27692693,1 8.76923077,1.87403101 8.76923077,2.5 C8.76923077,3.12596899 7.27680397,4 4.84615385,4 C2.41550372,4 0.923076923,3.12596899 0.923076923,2.5 C0.923199894,1.87403102 2.4169793,1 4.84615385,1 L4.84615385,1 Z M8.7685522,5.5 C6.64748276,5.5 5.53846154,6.41570415 5.53846154,7.3199153 L5.53846154,12.1800847 C5.53846154,13.0842958 6.6488399,14 8.7685522,14 C10.8738296,14 11.9812469,13.097312 11.9985195,12.1994706 L12,12.1994706 L12,7.32005376 C11.9985195,6.41570417 10.8896216,5.5 8.7685522,5.5 L8.7685522,5.5 Z M8.76923076,6.5 C10.2917998,6.5 11.0769231,7.02581915 11.0769231,7.25 C11.0769231,7.47418085 10.2917998,8 8.76923076,8 C7.24666175,8 6.46153846,7.47418085 6.46153846,7.25 C6.46153846,7.02581915 7.24666176,6.5 8.76923076,6.5 L8.76923076,6.5 Z M8.76923076,13 C7.24666176,13 6.46153846,12.4023004 6.46153846,12.1474736 L6.46153846,11 C6.98730993,11.3269889 7.75985497,11.5449815 8.76923076,11.5449815 C9.77860656,11.5449815 10.5497141,11.3271258 11.0769231,11 L11.0769231,12.1474736 C11.0769231,12.4023004 10.2917998,13 8.76923076,13 L8.76923076,13 Z M8.76923076,10.5 C7.24666176,10.5 6.46153846,9.9021635 6.46153846,9.64747364 L6.46153846,8.5 C6.98730993,8.8269889 7.75985497,9.04484459 8.76923076,9.04484459 C9.77860656,9.04484459 10.5497141,8.8269889 11.0769231,8.5 L11.0769231,9.64747364 C11.0769231,9.9021635 10.2917998,10.5 8.76923076,10.5 L8.76923076,10.5 Z" id="形状备份" fill="#FCFCFC" fill-rule="nonzero"></path>
    </g>
</svg>