<?xml version="1.0" encoding="UTF-8"?>
<svg width="335px" height="216px" viewBox="0 0 335 216" version="1.1" xmlns="http://www.w3.org/2000/svg" xmlns:xlink="http://www.w3.org/1999/xlink">
    <title>即将上线</title>
    <defs>
        <path d="M10,0 L325,0 C330.522847,-1.01453063e-15 335,4.4771525 335,10 L335,206 C335,211.522847 330.522847,216 325,216 L10,216 C4.4771525,216 6.76353751e-16,211.522847 0,206 L0,10 C-6.76353751e-16,4.4771525 4.4771525,1.01453063e-15 10,0 Z" id="path-1"></path>
        <filter x="-9.7%" y="-12.7%" width="119.4%" height="130.1%" filterUnits="objectBoundingBox" id="filter-3">
            <feOffset dx="0" dy="5" in="SourceAlpha" result="shadowOffsetOuter1"></feOffset>
            <feGaussianBlur stdDeviation="10" in="shadowOffsetOuter1" result="shadowBlurOuter1"></feGaussianBlur>
            <feColorMatrix values="0 0 0 0 0   0 0 0 0 0   0 0 0 0 0  0 0 0 0.05 0" type="matrix" in="shadowBlurOuter1"></feColorMatrix>
        </filter>
        <linearGradient x1="50%" y1="0%" x2="50%" y2="100%" id="linearGradient-4">
            <stop stop-color="#C1E9FD" offset="0%"></stop>
            <stop stop-color="#FFFFFF" offset="100%"></stop>
        </linearGradient>
        <linearGradient x1="50%" y1="35.6730229%" x2="50%" y2="100%" id="linearGradient-5">
            <stop stop-color="#FFFFFF" offset="0%"></stop>
            <stop stop-color="#FFFFFF" stop-opacity="0.158486187" offset="100%"></stop>
        </linearGradient>
        <linearGradient x1="50%" y1="35.6730229%" x2="50%" y2="100%" id="linearGradient-6">
            <stop stop-color="#FFFFFF" offset="0%"></stop>
            <stop stop-color="#FFFFFF" stop-opacity="0.158486187" offset="100%"></stop>
        </linearGradient>
        <linearGradient x1="50%" y1="35.6730229%" x2="50%" y2="100%" id="linearGradient-7">
            <stop stop-color="#FFFFFF" offset="0%"></stop>
            <stop stop-color="#FFFFFF" stop-opacity="0.158486187" offset="100%"></stop>
        </linearGradient>
        <linearGradient x1="68.9780238%" y1="20.499171%" x2="50%" y2="65.4235829%" id="linearGradient-8">
            <stop stop-color="#DF94AD" offset="0%"></stop>
            <stop stop-color="#BC5B74" offset="100%"></stop>
        </linearGradient>
        <linearGradient x1="50%" y1="0%" x2="50%" y2="64.1966025%" id="linearGradient-9">
            <stop stop-color="#F2AEAE" offset="0%"></stop>
            <stop stop-color="#E27689" offset="100%"></stop>
        </linearGradient>
        <linearGradient x1="50%" y1="0%" x2="50%" y2="64.1966025%" id="linearGradient-10">
            <stop stop-color="#F2C6AE" offset="0%"></stop>
            <stop stop-color="#E27689" offset="100%"></stop>
        </linearGradient>
    </defs>
    <g id="即将上线" stroke="none" stroke-width="1" fill="none" fill-rule="evenodd">
        <g id="编组-2">
            <mask id="mask-2" fill="white">
                <use xlink:href="#path-1"></use>
            </mask>
            <g id="Base备份">
                <use fill="black" fill-opacity="1" filter="url(#filter-3)" xlink:href="#path-1"></use>
                <use fill="#FFFFFF" fill-rule="evenodd" xlink:href="#path-1"></use>
            </g>
            <g id="sky" mask="url(#mask-2)">
                <g transform="translate(-75.000000, -140.000000)">
                    <polygon id="sky" fill="url(#linearGradient-4)" points="62 0 445 0 445 438 62 438"></polygon>
                    <path d="M395.09893,195 C418.509011,195 437.486631,213.432178 437.486631,236.169421 C437.486631,237.267539 437.442366,238.355614 437.355474,239.432057 C451.90402,245.952703 462,260.246506 462,276.830579 C462,299.567822 443.02238,318 419.612299,318 C406.782888,318 395.284705,312.46415 387.511782,303.717675 C380.096103,313.348273 366.599193,318 351.179144,318 C331.481705,318 314.922306,310.40964 310.165361,294.547056 C309.374397,294.59515 308.575247,294.619835 307.770053,294.619835 C287.462514,294.619835 271,278.91835 271,259.549587 C271,240.180824 287.462514,224.479339 307.770053,224.479339 C307.818818,224.479339 307.867561,224.479429 307.916281,224.47961 C309.50886,207.944446 323.926034,195 341.475936,195 C351.417781,195 360.3543,199.154015 366.5236,205.761678 C374.059201,199.077107 384.088846,195 395.09893,195 Z" id="cloud" fill="url(#linearGradient-5)"></path>
                    <path d="M285.973262,79 C298.229849,79 308.165775,88.7405818 308.165775,100.756198 C308.165775,101.336274 308.142618,101.911048 308.097161,102.479679 C315.713947,105.92594 321,113.479695 321,122.243802 C321,134.259418 311.064073,144 298.807487,144 C292.090683,144 286.070822,141.074695 282.001233,136.452771 C278.11784,141.541957 271.051626,144 262.97861,144 C252.665781,144 243.995916,139.988808 241.5054,131.606087 C241.09094,131.631595 240.672719,131.644628 240.251337,131.644628 C229.619117,131.644628 221,123.347095 221,113.11157 C221,102.876045 229.619117,94.5785124 240.251337,94.5785124 C240.276722,94.5785124 240.302095,94.5785597 240.327457,94.5786542 C241.161473,85.8407729 248.709823,79 257.898396,79 C263.103753,79 267.782721,81.1953826 271.012734,84.687474 L271.020016,84.6799881 C274.964704,81.1516945 280.212666,79 285.973262,79 Z" id="cloud" fill="url(#linearGradient-6)"></path>
                    <path d="M106.55615,273 C126.656952,273 142.951872,289.034496 142.951872,308.81405 C142.951872,309.7691 142.913881,310.715419 142.839307,311.651624 C155.330836,317.324186 164,329.758852 164,344.18595 C164,363.965504 147.70508,380 127.604278,380 C116.588554,380 106.715852,375.184353 100.041722,367.575757 C93.6737209,375.953522 82.084931,380 68.8449198,380 C51.9318206,380 37.7132015,373.396915 33.6288132,359.597566 C32.9491131,359.639703 32.2632456,359.661157 31.5721925,359.661157 C14.1353521,359.661157 0,346.002142 0,329.152893 C0,312.303643 14.1353521,298.644628 31.5721925,298.644628 C31.6142814,298.644628 31.6563511,298.644708 31.6984014,298.644867 C33.0651325,284.260676 45.444303,273 60.513369,273 C69.0498864,273 76.7231784,276.61371 82.020383,282.361914 C88.490503,276.546801 97.1023993,273 106.55615,273 Z" id="cloud" fill="url(#linearGradient-7)"></path>
                </g>
            </g>
            <g id="ballon" opacity="0.877929688" mask="url(#mask-2)">
                <g transform="translate(85.000000, -101.000000)">
                    <g id="Group" transform="translate(76.000000, 213.000000)">
                        <g id="Group-2-Copy" transform="translate(7.344150, 8.197659) rotate(6.000000) translate(-7.344150, -8.197659) translate(4.344150, 4.697659)" fill="#9FB2C3">
                            <polygon id="Rectangle-4-Copy" transform="translate(2.621371, 3.446366) rotate(-63.000000) translate(-2.621371, -3.446366) " points="-0.531313173 2.16825128 5.77405602 3.27331315 5.77331593 4.72448152 -0.460960431 4.53040499"></polygon>
                        </g>
                        <rect id="Rectangle-8" fill="#FAC1B7" x="2.22324299" y="5.67048954" width="2.22324299" height="3.0929943"></rect>
                        <path d="M2.67123386,7.99735379 C3.80220178,7.76975359 5.13566311,8.04677771 6.67161784,8.82842612 C6.07516928,13.404086 6.21465088,16.9543938 7.09006266,19.4793494 C4.02878919,20.6519167 1.97100454,20.2698317 0.916708724,18.3330944 C1.05950429,12.535038 1.13090208,9.63600987 1.13090208,9.63600987 C1.13090208,9.63600987 0.974781963,8.33875408 2.67123386,7.99735379 Z" id="Rectangle" fill="#ACBBCA"></path>
                        <path d="M11.0881681,3.60396636 L12.1218688,3.79418079 C13.099442,3.97406701 13.8091736,4.82631457 13.8091736,5.82030064 C13.8091736,6.54082756 13.2250712,7.12493003 12.5045443,7.12493003 C12.3867292,7.12493003 12.2694571,7.10897137 12.1559262,7.07748928 L10.9839997,6.75251439 C10.1288637,6.5153854 9.5445534,5.72707555 9.56636193,4.8399385 C9.58385626,4.12829625 10.1749383,3.56557818 10.8865805,3.58307251 C10.9542206,3.58473531 11.0216248,3.59172152 11.0881681,3.60396636 Z" id="Rectangle-3" fill="#FFFFFF"></path>
                        <path d="M13.4208159,5.50550152 C13.4975574,5.50550152 13.5597686,5.56771276 13.5597686,5.64445421 L13.5597686,6.12355529 C13.5597686,6.20029674 13.4975574,6.26250798 13.4208159,6.26250798 C13.3440745,6.26250798 13.2818632,6.20029674 13.2818632,6.12355529 L13.2818632,5.64445421 C13.2818632,5.56771276 13.3440745,5.50550152 13.4208159,5.50550152 Z" id="Rectangle-5" fill="#E8EDF0"></path>
                        <path d="M13.3453004,5.09258891 L13.3668267,5.09258891 C13.4428419,5.09258891 13.5044643,5.15421133 13.5044643,5.23022645 C13.5044643,5.30624156 13.4428419,5.36786398 13.3668267,5.36786398 L13.3453004,5.36786398 C13.2692853,5.36786398 13.2076629,5.30624156 13.2076629,5.23022645 C13.2076629,5.15421133 13.2692853,5.09258891 13.3453004,5.09258891 Z" id="Rectangle-5-Copy" fill="#E8EDF0"></path>
                        <g id="Group-4" transform="translate(11.182525, 5.297902) rotate(23.000000) translate(-11.182525, -5.297902) translate(7.182525, 3.297902)">
                            <path d="M4.80612824,2.93027284e-14 C5.27560535,2.93027284e-14 5.65619174,0.617720809 5.65619174,1.37971804 C5.65619174,2.14171528 5.27560535,2.75943609 4.80612824,2.75943609 L4.80612824,2.75943609 L1.40587425,3.5478464 L1.40587425,0.788410311 L4.57213117,0.0529330687 C4.64646926,0.0184596107 4.72497057,2.93027284e-14 4.80612824,2.93027284e-14 Z" id="Combined-Shape" fill="#4C4C4C"></path>
                            <ellipse id="Oval-27" fill="#838383" cx="1.40587425" cy="2.16812835" rx="1" ry="1.37971804"></ellipse>
                            <path d="M6.93128698,0.394205155 C7.40076409,0.394205155 7.78135048,1.01192596 7.78135048,1.7739232 C7.78135048,2.53592043 7.40076409,3.15364124 6.93128698,3.15364124 L6.93128698,3.15364124 L3.53103299,3.94205155 L3.53103299,1.18261547 L6.69728992,0.447138224 C6.771628,0.412664766 6.85012931,0.394205155 6.93128698,0.394205155 Z" id="Combined-Shape" fill="#565656"></path>
                            <ellipse id="Oval-27-Copy" fill="#838383" cx="3.53103299" cy="2.56233351" rx="1" ry="1.37971804"></ellipse>
                            <ellipse id="Oval-27-Copy-5" fill="#000000" opacity="0.229110054" cx="1.11200582" cy="2.2167172" rx="1" ry="1.03959611"></ellipse>
                            <ellipse id="Oval-27-Copy-4" fill="#000000" opacity="0.229110054" cx="3.26909067" cy="2.51374466" rx="1" ry="1.03959611"></ellipse>
                        </g>
                        <g id="Group-2" transform="translate(9.012926, 9.055679) rotate(4.000000) translate(-9.012926, -9.055679) translate(4.012926, 4.555679)">
                            <path d="M1.32891824,3.91050055 L7.27459635,6.60007825 L6.65931245,7.77010208 C6.41110386,8.24209552 5.82004522,8.46563935 5.28674639,8.28921922 L0.180657279,6.60007825 L1.32891824,3.91050055 Z" id="Rectangle-4" fill="#ACBBCA"></path>
                            <path d="M9.26341939,0.234561175 C10.0011569,0.476552461 10.0921166,1.00842064 9.53629855,1.83016571 C8.80271751,2.91472307 8.67741446,3.26466088 9.16038942,2.87997916 L8.29147258,1.82911644 C8.55604864,1.86039235 8.61712871,1.80104576 8.47471277,1.65107669 C8.36899468,1.53975175 8.40554129,1.35922519 8.41357602,0.840191112 C8.41357602,0.840191112 8.41357602,0.840191112 8.41357602,0.840191112 C8.41911518,0.482368083 8.71367843,0.196785579 9.07150146,0.202324736 C9.13673432,0.203334551 9.20144062,0.214190134 9.2634315,0.234524267 Z" id="Path-2" fill="#FAC1B7"></path>
                            <polygon id="Rectangle-4-Copy" fill="#ACBBCA" transform="translate(7.083802, 4.490515) rotate(-63.000000) translate(-7.083802, -4.490515) " points="3.93111774 3.21239995 10.2364869 4.31746181 10.2357468 5.76863018 4.00147048 5.57455365"></polygon>
                        </g>
                        <ellipse id="Oval-2" fill="#FAC1B7" cx="4.72439136" cy="4.12399239" rx="1.94533762" ry="3.0929943"></ellipse>
                        <path d="M3.63834515,0.038346184 C4.81526894,0.0235953169 5.78131212,0.965722616 5.79606299,2.1426464 C5.79932149,2.40263169 5.75497806,2.66101878 5.66526687,2.90505746 C5.10800241,4.42013721 4.74571774,5.28575241 4.57841288,5.50190305 C3.50083006,6.79895266 2.71464927,6.98110589 1.8151402,6.3287292 C1.37428255,6.00899341 0.319012609,4.99606856 0.319012609,4.02585966 C0.319012609,3.78846184 0.321517006,3.5533672 0.326525799,3.32057576 C0.365406216,1.51271547 1.83020883,0.0610082958 3.63834515,0.038346184 Z" id="Rectangle-41" fill="#FF6D6D"></path>
                        <rect id="Rectangle-9" fill="#FF6D6D" x="5.00229674" y="3.0929943" width="1" height="1.54649715"></rect>
                    </g>
                    <g id="Group-2" transform="translate(63.000000, 186.000000)">
                        <line x1="7.04801715" y1="1.43588478" x2="7.04801715" y2="44.8754473" id="Line" stroke="#88776D" stroke-width="2" stroke-linecap="square"></line>
                        <line x1="31.4313505" y1="1.43588478" x2="31.4313505" y2="44.8754473" id="Line-Copy-3" stroke="#88776D" stroke-width="2" stroke-linecap="square"></line>
                        <line x1="14.7480171" y1="0.47862826" x2="14.7480171" y2="20.0029069" id="Line-Copy" stroke="#88776D" stroke-width="2" stroke-linecap="square"></line>
                        <line x1="22.4480171" y1="0.47862826" x2="22.4480171" y2="20.0029069" id="Line-Copy-2" stroke="#88776D" stroke-width="2" stroke-linecap="square"></line>
                        <g id="Rectangle-10" transform="translate(0.000000, 38.339509)">
                            <path d="M3.39676277,0.35007482 L12.8777068,4.5843772 C17.0664231,6.49875645 21.8216964,6.49842432 26.0121133,4.58346655 L35.4904748,0.350696598 C36.6012667,-0.136822319 37.844072,0.335836963 38.2592145,1.40641065 C38.3660502,1.68357782 38.4098751,1.98458914 38.3879338,2.28914174 L37.0248619,16.949111 C36.855363,19.3018139 34.9763311,21.2090564 32.8279265,21.2090564 L6.03477857,21.2090564 C3.88637399,21.2090564 2.00922802,19.3018139 1.84205568,16.949111 L0.497657295,2.28864138 C0.414071128,1.11228994 1.30835085,0.158648666 2.49508697,0.158648666 C2.80222844,0.158648666 3.10976378,0.223937222 3.39676277,0.35007482 Z" id="Mask" fill="url(#linearGradient-8)"></path>
                            <rect fill="#8F3C53" x="0" y="7.98739765" width="39.1602358" height="3.19495906"></rect>
                        </g>
                        <path d="M8.58306538,55.2017926 C9.76813941,55.2017926 10.7288317,54.2481714 10.7288317,53.0718199 C10.7288317,52.2875856 10.0135763,51.1042674 8.58306538,49.5218654 C7.15255448,51.1042674 6.43729904,52.2875856 6.43729904,53.0718199 C6.43729904,54.2481714 7.39799135,55.2017926 8.58306538,55.2017926 Z" id="Oval-3" fill="#FFB379"></path>
                        <path d="M15.556806,55.2017926 C16.74188,55.2017926 17.7025723,54.2481714 17.7025723,53.0718199 C17.7025723,52.2875856 16.9873169,51.1042674 15.556806,49.5218654 C14.1262951,51.1042674 13.4110397,52.2875856 13.4110397,53.0718199 C13.4110397,54.2481714 14.371732,55.2017926 15.556806,55.2017926 Z" id="Oval-3-Copy" fill="#FFB379"></path>
                        <path d="M23.0669882,55.2017926 C24.2520622,55.2017926 25.2127546,54.2481714 25.2127546,53.0718199 C25.2127546,52.2875856 24.4974991,51.1042674 23.0669882,49.5218654 C21.6364773,51.1042674 20.9212219,52.2875856 20.9212219,53.0718199 C20.9212219,54.2481714 21.8819142,55.2017926 23.0669882,55.2017926 Z" id="Oval-3-Copy-2" fill="#FFB379"></path>
                        <path d="M30.5771704,55.2017926 C31.7622444,55.2017926 32.7229368,54.2481714 32.7229368,53.0718199 C32.7229368,52.2875856 32.0076813,51.1042674 30.5771704,49.5218654 C29.1466595,51.1042674 28.4314041,52.2875856 28.4314041,53.0718199 C28.4314041,54.2481714 29.3920964,55.2017926 30.5771704,55.2017926 Z" id="Oval-3-Copy-3" fill="#FFB379"></path>
                        <path d="M8.16346253,18.8373309 L30.181258,18.8373309 C31.0635216,18.8373309 31.7787376,19.5525468 31.7787376,20.4348104 C31.7787376,21.317074 31.0635216,22.0322899 30.181258,22.0322899 L8.16346253,22.0322899 C7.28119895,22.0322899 6.565983,21.317074 6.565983,20.4348104 C6.565983,19.5525468 7.28119895,18.8373309 8.16346253,18.8373309 Z" id="Rectangle-2" fill="#756660"></path>
                    </g>
                    <g id="Group">
                        <path d="M82.5202312,1.38218689 C129.154772,1.38218689 166,26.6558004 166,73.1851028 C166,91.5412699 157.498932,109.122312 145.432372,123.682928 L145.626144,123.682099 C145.039573,124.295699 144.457837,124.906764 143.880934,125.515293 C141.901142,127.806727 139.834297,130.018493 137.701563,132.141011 C115.500234,156.331326 101.431479,176.258855 95.4935315,191.922335 C91.5693756,190.645839 87.6452197,190.007591 83.7210639,190.007591 C79.796908,190.007591 75.4947212,190.645839 70.8145034,191.922335 C62.1977543,175.385571 47.6701936,155.246351 27.2318213,131.504676 C11.7601233,115.657844 0,94.9672027 0,73.1851028 C0,26.6558004 35.88569,1.38218689 82.5202312,1.38218689 Z" id="Combined-Shape" fill="url(#linearGradient-9)"></path>
                        <path d="M56.0229761,2.89392362 C77.1911163,-0.776029131 37.5927448,25.8867149 37.5927448,62.1897806 C37.5927448,98.4928463 64.0890575,141.233073 70.8346997,175.623929 C64.6096205,175.623929 66.495637,175.623929 65.9116002,175.623929 C57.7524238,146.105018 14.3930636,97.8591246 14.3930636,62.1897806 C14.3930636,26.5204366 34.8548359,6.56387636 56.0229761,2.89392362 Z" id="Rectangle-42-Copy" fill="#FFFFFF"></path>
                        <path d="M135.664595,2.89392362 C156.832735,-0.776029131 117.234363,25.8867149 117.234363,62.1897806 C117.234363,98.4928463 143.730676,141.233073 150.476318,175.623929 C144.251239,175.623929 146.137255,175.623929 145.553219,175.623929 C137.394042,146.105018 94.0346821,97.8591246 94.0346821,62.1897806 C94.0346821,26.5204366 114.496454,6.56387636 135.664595,2.89392362 Z" id="Rectangle-42-Copy-3" fill="#FFFFFF" transform="translate(122.255500, 89.090052) scale(-1, 1) translate(-122.255500, -89.090052) "></path>
                        <path d="M78.8600597,5.21167574 C98.3394623,-12.946288 131.216763,20.1275912 131.216763,57.8269287 C131.216763,95.5262662 102.378734,141.115852 95.7989931,175.623929 C85.808745,175.623929 81.9398657,175.623929 69.6206414,175.623929 C63.0517677,138.293409 35.7427746,94.8681706 35.7427746,57.8269287 C35.7427746,20.7856868 60.1290012,-12.3631387 78.8600597,5.21167574 Z" id="Rectangle-42-Copy-2" fill="url(#linearGradient-10)"></path>
                        <path d="M80.6011561,0.424814679 C96.5275508,0.424814679 113.225434,25.8867149 113.225434,62.1897806 C113.225434,98.4928463 96.0074561,132.749092 89.5547832,175.623929 C83.3297039,175.623929 84.1215174,175.623929 76.4452168,175.623929 C71.2576466,136.099201 53.734104,96.9017524 53.734104,61.2324084 C53.734104,25.5630644 64.6747614,0.424814679 80.6011561,0.424814679 Z" id="Rectangle-42" fill="#FFFFFF"></path>
                        <path d="M86.8185679,125.708452 C117.314825,125.708452 144.536685,113.440889 162.390916,94.2376122 C157.458621,108.803715 147.923496,122.211924 136.679642,133.146346 C114.084181,157.785227 100.356058,177.377771 95.4935315,191.922335 C91.5693756,190.700967 87.6452197,190.090283 83.7210639,190.090283 C79.796908,190.090283 75.4947212,190.700967 70.8145034,191.922335 C63.0813354,176.704012 49.050676,157.064793 28.7225251,133.004679 C14.1015527,118.539281 2.47679188,99.7679396 0.348923645,79.7226368 C16.5684627,107.044279 49.2026413,125.708452 86.8185679,125.708452 Z" id="Combined-Shape" fill="#B1EBFF" opacity="0.25854846" style="mix-blend-mode: multiply;"></path>
                    </g>
                </g>
            </g>
        </g>
    </g>
</svg>