<?xml version="1.0" encoding="UTF-8"?>
<svg width="20px" height="20px" viewBox="0 0 20 20" version="1.1" xmlns="http://www.w3.org/2000/svg" xmlns:xlink="http://www.w3.org/1999/xlink">
    <title>line chart</title>
    <defs>
        <linearGradient x1="2.87052612%" y1="6.44444444%" x2="100%" y2="93.5555556%" id="linearGradient-1">
            <stop stop-color="#4268E6" offset="0%"></stop>
            <stop stop-color="#498EFA" offset="100%"></stop>
        </linearGradient>
    </defs>
    <g id="line-chart" stroke="none" stroke-width="1" fill="none" fill-rule="evenodd">
        <g fill-rule="nonzero">
            <rect id="矩形" fill="#000000" opacity="0" x="0" y="0" width="20" height="20"></rect>
            <path d="M17.84375,15.5681818 L4.40625,15.5681818 L4.40625,3.15909091 C4.40625,3.07159091 4.3359375,3 4.25,3 L3.15625,3 C3.0703125,3 3,3.07159091 3,3.15909091 L3,16.8409091 C3,16.9284091 3.0703125,17 3.15625,17 L17.84375,17 C17.9296875,17 18,16.9284091 18,16.8409091 L18,15.7272727 C18,15.6397727 17.9296875,15.5681818 17.84375,15.5681818 Z M6.47265625,12.4997159 C6.53320313,12.5613636 6.63085938,12.5613636 6.69335938,12.4997159 L9.39453125,9.76335227 L11.8867188,12.3167614 C11.9472656,12.3784091 12.046875,12.3784091 12.1074219,12.3167614 L17.4863281,6.84204545 C17.546875,6.78039773 17.546875,6.67897727 17.4863281,6.61732955 L16.7128906,5.82982955 C16.6523438,5.76818182 16.5527344,5.76818182 16.4921875,5.82982955 L12,10.4017045 L9.51171875,7.85227273 C9.45117188,7.790625 9.3515625,7.790625 9.29101562,7.85227273 L5.70117188,11.4855114 C5.640625,11.5471591 5.640625,11.6485795 5.70117188,11.7102273 L6.47265625,12.4997159 Z" id="形状" fill="url(#linearGradient-1)"></path>
        </g>
    </g>
</svg>