<?xml version="1.0" encoding="UTF-8"?>
<svg width="26px" height="26px" viewBox="0 0 26 26" version="1.1" xmlns="http://www.w3.org/2000/svg" xmlns:xlink="http://www.w3.org/1999/xlink">
    <title>icon/彩色/关联订单</title>
    <defs>
        <linearGradient x1="2.87052612%" y1="0%" x2="100%" y2="100%" id="linearGradient-1">
            <stop stop-color="#4268E6" offset="0%"></stop>
            <stop stop-color="#498EFA" offset="100%"></stop>
        </linearGradient>
    </defs>
    <g id="icon/彩色/关联订单" stroke="none" stroke-width="1" fill="none" fill-rule="evenodd">
        <path d="M9.61655506,20.9998926 C8.65018217,21.0065446 7.72189761,20.6235709 7.04141773,19.9374922 C6.36093785,19.2514136 5.98567878,18.3201185 6.00041837,17.3540034 C6.01182918,16.3776124 6.40439886,15.4443316 7.09437569,14.7532691 L8.9662582,12.8938656 C9.19953725,12.6488814 9.58728084,12.6393595 9.83230775,12.8725979 C10.0773347,13.1058363 10.0868582,13.4935124 9.85357915,13.7384966 L7.95738646,15.6039766 C7.48995345,16.0698075 7.22376207,16.7002658 7.21592649,17.3600799 C7.20508672,18.0063016 7.45735504,18.6291861 7.91484368,19.0858008 C8.88930923,20.0328532 10.4462395,20.0138364 11.3972745,19.0432654 L14.314494,16.1204776 C14.7852702,15.6569077 15.0520708,15.0250065 15.0559539,14.3643743 C15.0672505,13.7198548 14.814786,13.0986809 14.3570368,12.6447299 C14.2028747,12.4905947 14.1426676,12.2659378 14.1990948,12.0553852 C14.255522,11.8448326 14.420011,11.6803724 14.6306002,11.623955 C14.8411895,11.5675376 15.0658855,11.6277342 15.2200475,11.7818694 C15.9092655,12.4700208 16.2888302,13.408896 16.2714621,14.3826037 C16.2600513,15.3589947 15.8674816,16.2922756 15.1775048,16.983338 L12.2845954,19.9061258 C11.5777609,20.6134273 10.6165587,21.0074735 9.61655506,20.9998926 Z M12.2116649,15.3973864 C12.0501221,15.39831 11.8948542,15.3349018 11.7801595,15.2211582 C11.0909416,14.5330068 10.7113769,13.5941316 10.728745,12.6204239 C10.7401558,11.644033 11.1327255,10.7107521 11.8227023,10.0196896 L14.7459994,7.09690179 C16.1718322,5.65113446 18.4990838,5.63210651 19.9483742,7.05436641 C20.631729,7.74638646 21.0102518,8.6826844 20.9997887,9.65510071 C20.9963291,10.6420386 20.6031566,11.5876722 19.9058314,12.2862174 L18.0339489,14.109162 C17.7928162,14.3156268 17.4333698,14.3017454 17.2088843,14.0772989 C16.9843987,13.8528525 16.9705149,13.4934687 17.1770156,13.2523781 L19.0428206,11.3868981 C19.5102536,10.9210671 19.776445,10.2906089 19.7842806,9.63079479 C19.7951204,8.98457311 19.5428521,8.36168857 19.0853634,7.90507389 C18.1108979,6.95802147 16.5539676,6.97703825 15.6029326,7.94760926 L12.6857131,10.8703971 C12.2149369,11.333967 11.9481363,11.9658681 11.9442531,12.6265004 C11.9329566,13.2710198 12.1854211,13.8921938 12.6431703,14.3461448 C12.7582258,14.4602408 12.822943,14.6155532 12.822943,14.777575 C12.822943,14.9395969 12.7582258,15.0949092 12.6431703,15.2090053 C12.5304931,15.3272145 12.3749722,15.3951062 12.2116649,15.3973864 L12.2116649,15.3973864 Z" id="形状" fill="url(#linearGradient-1)" fill-rule="nonzero"></path>
    </g>
</svg>