<?xml version="1.0" encoding="UTF-8"?>
<svg width="4px" height="17px" viewBox="0 0 4 17" version="1.1" xmlns="http://www.w3.org/2000/svg" xmlns:xlink="http://www.w3.org/1999/xlink">
    <title>更多</title>
    <g id="更多" stroke="none" stroke-width="1" fill="none" fill-rule="evenodd" opacity="0.300000012">
        <path d="M-4.14946619,7 C-3.12744459,7 -2.29893238,7.82851221 -2.29893238,8.85053381 C-2.29893238,9.87255541 -3.12744459,10.7010676 -4.14946619,10.7010676 C-5.17148779,10.7010676 -6,9.87255541 -6,8.85053381 C-6,7.82851221 -5.17148779,7 -4.14946619,7 Z M2,7 C3.0220216,7 3.85053381,7.82851221 3.85053381,8.85053381 C3.85053381,9.87255541 3.0220216,10.7010676 2,10.7010676 C0.977978399,10.7010676 0.149466192,9.87255541 0.149466192,8.85053381 C0.149466192,7.82851221 0.977978399,7 2,7 Z M8.14946619,7 C9.17148779,7 10,7.82851221 10,8.85053381 C10,9.87255541 9.17148779,10.7010676 8.14946619,10.7010676 C7.12744459,10.7010676 6.29893238,9.87255541 6.29893238,8.85053381 C6.29893238,7.82851221 7.12744459,7 8.14946619,7 Z" id="Options备份-5" fill="#1F314A" transform="translate(2.000000, 8.850534) rotate(-270.000000) translate(-2.000000, -8.850534) "></path>
    </g>
</svg>