<?xml version="1.0" encoding="UTF-8"?>
<svg width="40px" height="40px" viewBox="0 0 40 40" version="1.1" xmlns="http://www.w3.org/2000/svg" xmlns:xlink="http://www.w3.org/1999/xlink">
    <title>主页icon/员工订单</title>
    <defs>
        <linearGradient x1="-2.84848933%" y1="-12.6992086%" x2="131.780478%" y2="113.951091%" id="linearGradient-1">
            <stop stop-color="#4468DF" offset="0%"></stop>
            <stop stop-color="#5AADF9" offset="100%"></stop>
        </linearGradient>
    </defs>
    <g id="主页icon/员工订单" stroke="none" stroke-width="1" fill="none" fill-rule="evenodd">
        <path d="M32.3570455,5.07692308 L27.0909091,5.07692308 L27.0909091,4.38461538 C27.0909091,3.61991342 26.500739,3 25.7727273,3 C25.0447156,3 24.4545455,3.61991342 24.4545455,4.38461538 L24.4545455,5.07692308 L16.5454545,5.07692308 L16.5454545,4.38461538 C16.5454545,3.61991342 15.9552844,3 15.2272727,3 C14.499261,3 13.9090909,3.61991342 13.9090909,4.38461538 L13.9090909,5.07692308 L8.6245,5.07692308 C7.17713636,5.07692308 6,6.37569231 6,7.97215385 L6,12 L35,12 L35,7.97215385 C35,6.37569231 33.8149545,5.07692308 32.3570455,5.07692308 M26.6,19 C27.3731986,19 28,19.6715729 28,20.5 C28,21.3284271 27.3731986,22 26.6,22 L15.4,22 C14.6268014,22 14,21.3284271 14,20.5 C14,19.6715729 14.6268014,19 15.4,19 L26.6,19 Z M14,27.5 C14,26.6715729 14.6268014,26 15.4,26 L26.6,26 C27.3731986,26 28,26.6715729 28,27.5 C28,28.3284271 27.3731986,29 26.6,29 L15.4,29 C14.6268014,29 14,28.3284271 14,27.5 Z M33.6818182,15 L6,15 L6,34.2952941 C6,35.7861176 7.17845455,37 8.62581818,37 L32.3741818,37 C33.8215455,37 35,35.7861176 35,34.2952941 L35,15 L33.6818182,15 Z" id="形状备份" fill="url(#linearGradient-1)" fill-rule="nonzero"></path>
    </g>
</svg>