<?xml version="1.0" encoding="UTF-8"?>
<svg width="18px" height="18px" viewBox="0 0 18 18" version="1.1" xmlns="http://www.w3.org/2000/svg" xmlns:xlink="http://www.w3.org/1999/xlink">
    <title>验证码</title>
    <defs>
        <linearGradient x1="22.5337757%" y1="0%" x2="79.1391161%" y2="100%" id="linearGradient-1">
            <stop stop-color="#4268E6" offset="0%"></stop>
            <stop stop-color="#498EFA" offset="100%"></stop>
        </linearGradient>
    </defs>
    <g id="验证码" stroke="none" stroke-width="1" fill="none" fill-rule="evenodd">
        <path d="M9.012,13.024 C8.61497611,13.0115384 8.23765897,12.8480939 7.957,12.567 C7.67675973,12.2886452 7.52403622,11.9068364 7.535,11.512 C7.52403622,11.1171636 7.67675973,10.7353548 7.957,10.457 C8.2353548,10.1767597 8.61716358,10.0240362 9.012,10.035 C9.40683642,10.0240362 9.7886452,10.1767597 10.067,10.457 C10.3472403,10.7353548 10.4999638,11.1171636 10.489,11.512 C10.4999638,11.9068364 10.3472403,12.2886452 10.067,12.567 C9.78634103,12.8480939 9.40902389,13.0115384 9.012,13.024 L9.012,13.024 Z M13.512,15.274 L13.512,7.75 L4.512,7.75 L4.512,15.274 L13.512,15.274 Z M13.512,6.274 C13.9068364,6.26303622 14.2886452,6.41575973 14.567,6.696 C14.8480939,6.97665897 15.0115384,7.35397611 15.024,7.751 L15.024,15.274 C15.0112864,15.6706748 14.847861,16.0475903 14.567,16.328 C14.2886452,16.6082403 13.9068364,16.7609638 13.512,16.75 L4.512,16.75 C4.11716358,16.7609638 3.7353548,16.6082403 3.457,16.328 C3.17613903,16.0475903 3.01271361,15.6706748 3,15.274 L3,7.75 C3.01246158,7.35297611 3.17590607,6.97565897 3.457,6.695 C3.73552421,6.4151263 4.11731154,6.26277325 4.512,6.274 L5.25,6.274 L5.25,4.762 C5.25067006,3.76615471 5.64963602,2.81194911 6.358,2.112 C7.05826126,1.40118093 8.01418782,1.00065707 9.012,1 C10.0098122,1.00065707 10.9657387,1.40118093 11.666,2.112 C12.3749832,2.81308954 12.773663,3.76891262 12.773,4.766 L12.773,6.278 L13.512,6.274 Z M9.012,2.512 C8.41758348,2.5191304 7.84963712,2.75894593 7.43,3.18 C7.00894593,3.59963712 6.7691304,4.16758348 6.762,4.762 L6.762,6.274 L11.262,6.274 L11.262,4.762 C11.2548696,4.16758348 11.0150541,3.59963712 10.594,3.18 C10.1743629,2.75894593 9.60641652,2.5191304 9.012,2.512 Z" id="Path_284" fill="url(#linearGradient-1)" fill-rule="nonzero"></path>
    </g>
</svg>