<?xml version="1.0" encoding="UTF-8"?>
<svg width="26px" height="26px" viewBox="0 0 26 26" version="1.1" xmlns="http://www.w3.org/2000/svg" xmlns:xlink="http://www.w3.org/1999/xlink">
    <title>icon/彩色/a卡信息</title>
    <defs>
        <linearGradient x1="2.87052612%" y1="5.01298691%" x2="100%" y2="94.9870131%" id="linearGradient-1">
            <stop stop-color="#4268E6" offset="0%"></stop>
            <stop stop-color="#498EFA" offset="100%"></stop>
        </linearGradient>
    </defs>
    <g id="icon/彩色/a卡信息" stroke="none" stroke-width="1" fill="none" fill-rule="evenodd">
        <g id="accessory" transform="translate(2.000000, 2.000000)" fill-rule="nonzero">
            <g id="Group">
                <rect id="Rectangle-path" fill="#000000" opacity="0" x="0" y="0" width="22" height="22"></rect>
                <path d="M18.1053125,5.583875 C17.462549,4.937328 16.5880579,4.57446247 15.676375,4.576 L15.6729375,4.576 C14.7639801,4.57358785 13.8917388,4.93446407 13.2501875,5.578375 L13.248125,5.57975 L6.920375,11.9075 C6.33173239,12.4981481 6.15682694,13.3852164 6.47721025,14.1550994 C6.79759355,14.9249824 7.55017787,15.4260801 8.3840625,15.42475 C8.9106875,15.42475 9.4373125,15.225375 9.8374375,14.823875 L16.1645,8.4968125 C16.3381534,8.3231591 16.4059728,8.07005374 16.3424112,7.83283877 C16.2788497,7.59562381 16.0935637,7.41033783 15.8563487,7.34677627 C15.6191338,7.28321471 15.3660284,7.35103409 15.192375,7.5246875 L8.8653125,13.85175 C8.73642913,13.9798041 8.56193853,14.0513888 8.3802565,14.0507441 C8.19857447,14.0500994 8.02459631,13.9772781 7.896625,13.8483125 C7.76585873,13.7213564 7.69172424,13.5470913 7.69094813,13.3648358 C7.69017202,13.1825803 7.7628197,13.0076902 7.8925,12.879625 L14.2195625,6.5525625 C14.6042471,6.16599982 15.1275841,5.94938685 15.6729375,5.951 L15.675,5.951 C16.2222898,5.95015946 16.747243,6.16796184 17.1331875,6.556 C17.5223125,6.945125 17.7368125,7.4635 17.7375,8.0135 C17.7398004,8.55966112 17.5234197,9.08402529 17.136625,9.469625 L15.4281875,11.1780625 L15.4171875,11.188375 L10.6816875,15.92525 C9.33787142,17.2667165 7.16189058,17.2676391 5.8169375,15.9273125 C5.17105295,15.2838203 4.80937918,14.4087233 4.8125,13.497 C4.8125,12.577125 5.1706875,11.7129375 5.820375,11.06325 L12.271875,4.6110625 C12.4455284,4.4374091 12.5133478,4.18430374 12.4497862,3.94708877 C12.3862247,3.70987381 12.2009387,3.52458783 11.9637237,3.46102627 C11.7265088,3.39746471 11.4734034,3.46528409 11.29975,3.6389375 L4.84825,10.0904375 C3.94208212,10.9920895 3.43411822,12.2186788 3.43748322,13.497 C3.43748322,14.7833125 3.9373125,15.992625 4.8448125,16.900125 C5.74651319,17.8026953 6.97075278,18.3086714 8.2465625,18.3060725 C9.52453151,18.3080079 10.7506417,17.8008396 11.6538125,16.8966875 L18.34525,10.2059375 C18.4122088,10.1381985 18.4642046,10.05716 18.497875,9.9680625 C18.89525,9.3974375 19.1131875,8.7236875 19.1125039,8.012125 C19.1138831,7.1008099 18.7513084,6.22667076 18.1053125,5.583875" id="Shape" fill="url(#linearGradient-1)"></path>
            </g>
        </g>
    </g>
</svg>