<?xml version="1.0" encoding="UTF-8"?>
<svg width="26px" height="26px" viewBox="0 0 26 26" version="1.1" xmlns="http://www.w3.org/2000/svg" xmlns:xlink="http://www.w3.org/1999/xlink">
    <title>icon/彩色/评估信息</title>
    <defs>
        <linearGradient x1="8.47366064%" y1="0%" x2="94.055594%" y2="100%" id="linearGradient-1">
            <stop stop-color="#4268E6" offset="0%"></stop>
            <stop stop-color="#498EFA" offset="100%"></stop>
        </linearGradient>
    </defs>
    <g id="icon/彩色/评估信息" stroke="none" stroke-width="1" fill="none" fill-rule="evenodd">
        <g id="查看详情" transform="translate(3.000000, 3.000000)" fill-rule="nonzero">
            <g id="Group">
                <rect id="Rectangle-path" fill="#000000" opacity="0" x="0" y="0" width="20" height="20"></rect>
                <path d="M8.75741248,17.4274442 L4.48057217,17.4274442 C2.99332053,17.4274442 1.78386055,16.2179442 1.78386055,14.7307126 L1.78386055,3.94384607 C1.78386055,2.45657445 2.99332053,1.24709447 4.48057217,1.24709447 L14.1508757,1.24709447 C15.6381074,1.24709447 16.8476073,2.45657445 16.8476073,3.94384607 L16.8476073,9.33726934 L15.4991616,9.33726934 L15.4991616,3.94384607 C15.4991616,3.2008898 14.8951111,2.59548027 14.1508557,2.59548027 L4.48057217,2.59548027 C3.73763588,2.59548027 3.13222635,3.2008898 3.13222635,3.94384607 L3.13222635,14.7307126 C3.13222635,15.474988 3.73763588,16.0790784 4.48057217,16.0790784 L8.75741248,16.0790784 L8.75741248,17.4274442 Z M4.48057217,5.29221187 L14.1508557,5.29221187 L14.1508557,6.6405577 L4.48057217,6.6405577 L4.48057217,5.29221187 Z M18.2161195,17.7995719 L16.3001585,15.8835709 C16.6426263,15.3563484 16.8476073,14.7293735 16.8476073,14.0565497 C16.8476073,12.2025267 15.3307158,10.6856551 13.4766928,10.6856551 C11.6226698,10.6856551 10.1058183,12.2025467 10.1058183,14.0565497 C10.1058183,15.9105327 11.6226898,17.4274442 13.4766928,17.4274442 C14.1724411,17.4274442 14.8196423,17.2143687 15.3590166,16.8489764 L17.2628858,18.7528855 L18.2161195,17.7995719 L18.2161195,17.7995719 Z M13.4766728,16.0790784 C12.3616088,16.0790784 11.4541041,15.1716336 11.4541041,14.0565497 C11.4541041,12.9414457 12.3616088,12.034001 13.4766728,12.034001 C14.5917368,12.034001 15.4991616,12.9414457 15.4991616,14.0565497 C15.4991616,15.1716336 14.5917368,16.0790784 13.4766728,16.0790784 Z M4.48057217,7.98892352 L14.1508557,7.98892352 L14.1508557,9.33728932 L4.48057217,9.33728932 L4.48057217,7.98892352 Z M4.48057217,10.6856551 L8.75741248,10.6856551 L8.75741248,12.034001 L4.48057217,12.034001 L4.48057217,10.6856551 Z" id="Shape" fill="url(#linearGradient-1)"></path>
            </g>
        </g>
    </g>
</svg>