<?xml version="1.0" encoding="UTF-8"?>
<svg width="40px" height="40px" viewBox="0 0 40 40" version="1.1" xmlns="http://www.w3.org/2000/svg" xmlns:xlink="http://www.w3.org/1999/xlink">
    <title>主页icon/联系客服</title>
    <defs>
        <linearGradient x1="5.52516587%" y1="0%" x2="97.1836735%" y2="100%" id="linearGradient-1">
            <stop stop-color="#4268E6" offset="0%"></stop>
            <stop stop-color="#498EFA" offset="100%"></stop>
        </linearGradient>
    </defs>
    <g id="主页icon/联系客服" stroke="none" stroke-width="1" fill="none" fill-rule="evenodd">
        <g id="客服备份" transform="translate(3.000000, 3.000000)" fill="url(#linearGradient-1)" fill-rule="nonzero">
            <path d="M29.5704737,12.9798244 L29.5704737,11.6346157 C29.5704737,5.21926099 24.2979472,0 17.8171316,0 L16.1827061,0 C9.70189057,0 4.42936399,5.21926099 4.42936399,11.6346157 L4.42936399,12.9796246 C1.89936175,13.531934 0,15.7658228 0,18.4341943 L0,19.7952783 C0,22.8771952 2.53202457,25.3846627 5.64517239,25.3846627 L8.03569761,25.3846627 C8.74575093,25.3846627 9.3217966,24.8143545 9.3217966,24.1114609 L9.3217966,14.1188344 C9.3217966,13.4159016 8.74571135,12.8456326 8.03569761,12.8456326 L7.00161737,12.8456326 L7.00161737,11.6345726 C7.00161737,6.62335174 11.1203508,2.5463526 16.1827695,2.5463526 L17.8171949,2.5463526 C22.879574,2.5463526 26.998347,6.62335174 26.998347,11.6345726 L26.998347,12.8456326 L25.9642668,12.8456326 C25.2542135,12.8456326 24.6781678,13.4159408 24.6781678,14.1188344 L24.6781678,24.1114218 C24.6781678,24.8143545 25.254253,25.3846235 25.9642668,25.3846235 L27.7485342,25.3846235 C27.272924,28.2319996 25.1941928,30.5434314 22.3717649,31.3304579 C22.2653764,29.8592418 21.0357292,28.6911572 19.5228806,28.6911572 L16.5864387,28.6911572 C15.0039328,28.6911572 13.7169829,29.9652013 13.7169829,31.5318376 L13.7169829,32.1593196 C13.7169829,33.7259559 15.0039328,35 16.5864387,35 L19.5228806,35 C21.0875695,35 22.3584397,33.7532558 22.3870728,32.2109574 C25.6940313,31.3830948 28.1244964,28.6864674 28.6148802,25.3714907 C31.6064789,25.2351778 34,22.7899241 34,19.7951921 L34,18.4341081 C34,15.7660618 32.1002306,13.5324315 29.5705173,12.9797735 L29.5704737,12.9798244 Z" id="路径"></path>
        </g>
    </g>
</svg>