<?xml version="1.0" encoding="UTF-8"?>
<svg width="60px" height="60px" viewBox="0 0 60 60" version="1.1" xmlns="http://www.w3.org/2000/svg" xmlns:xlink="http://www.w3.org/1999/xlink">
    <title>排行榜</title>
    <defs>
        <linearGradient x1="-22.6431078%" y1="-12.6992086%" x2="162.411691%" y2="113.951091%" id="linearGradient-1">
            <stop stop-color="#4468DF" offset="0%"></stop>
            <stop stop-color="#5AADF9" offset="100%"></stop>
        </linearGradient>
    </defs>
    <g id="排行榜" stroke="none" stroke-width="1" fill="none" fill-rule="evenodd">
        <path d="M17.5699842,45 L10.4300158,45 C9.08820125,45 8,43.9665112 8,42.6911509 L8,28.3083847 C8,27.0334888 9.08814386,26 10.4300158,26 L17.5699268,26 C18.9117987,26 20,27.0334888 20,28.3083847 L20,42.6911509 C20,43.9660468 18.9118561,44.999484 17.5699268,44.999484 M33.5699268,46 L26.4300158,46 C25.0882013,46 24,44.9121156 24,43.5701181 L24,8.42988192 C24,7.08788441 25.0881439,6 26.4300158,6 L33.5699268,6 C34.9117987,6 36,7.08788441 36,8.42988192 L36,43.5696292 C36,44.9116267 34.9118561,45.9995111 33.5699268,45.9995111 M49.5699268,47 L42.4300732,47 C41.0881439,47 40,45.9095636 40,44.5695772 L40,21.4298252 C40,20.087829 41.0881439,19 42.4300732,19 L49.5699268,19 C50.9117987,19 52,20.087829 52,21.4298252 L52,44.5695772 C52,45.9115734 50.9118561,46.9994568 49.5699268,46.9994568 M51.8980152,51.9999456 L8.10198479,51.9999456 C7.49533215,51.9999456 7,51.4849783 7,50.8499463 L7,49.1499993 C7,48.5129544 7.49434215,48 8.10198479,48 L51.8980152,48 C52.5046678,48 53,48.5150217 53,49.1499993 L53,50.8499463 C53,51.4869912 52.5056579,52 51.8980152,52" id="形状" fill="url(#linearGradient-1)" fill-rule="nonzero"></path>
    </g>
</svg>