<?xml version="1.0" encoding="UTF-8"?>
<svg width="60px" height="60px" viewBox="0 0 60 60" version="1.1" xmlns="http://www.w3.org/2000/svg" xmlns:xlink="http://www.w3.org/1999/xlink">
    <title>成交率</title>
    <defs>
        <linearGradient x1="-22.6431078%" y1="-12.6992086%" x2="162.411691%" y2="113.951091%" id="linearGradient-1">
            <stop stop-color="#4468DF" offset="0%"></stop>
            <stop stop-color="#5AADF9" offset="100%"></stop>
        </linearGradient>
    </defs>
    <g id="成交率" stroke="none" stroke-width="1" fill="none" fill-rule="evenodd">
        <path d="M40.3853684,23 L52.0000509,18.3505542 C48.1460321,10.986837 40.744193,5.79033234 32.0000509,5 L32.0000509,17.4079953 L32.0000509,17.4079955 C35.4540561,18.0509233 38.4874,20.0738126 40.3853694,23 L40.3853684,23 Z M17.5442881,29.3950153 C17.5363266,23.4493367 21.9369482,18.3485274 28.0000509,17.2756977 L28.0000509,5 C15.1344469,6.12894227 5.00005089,16.6179799 5.00005089,29.3950153 L5.00005089,29.3951116 C4.98912621,34.6539794 6.73743876,39.7759283 9.98527073,44 L19.43953,35.8388367 C18.2690146,33.9403905 17.5444017,31.7224374 17.5444017,29.3951116 L17.5442881,29.3950153 Z M53.9412041,23 L42.3533814,27.6510454 C42.5175917,28.4817084 42.6294769,29.3029131 42.6294769,30.17408 C42.6294769,37.0748703 36.9997759,42.7057419 30.013713,42.7057419 L30.0137137,42.7057419 C27.222446,42.7136128 24.5111804,41.7811133 22.323812,40.0609175 L13.0000509,48.3397293 C17.4796624,52.4763533 23.4353726,55 30.0136576,55 C43.812095,55 55.0000509,43.8837479 55.0000509,30.1753597 C55.0095256,27.6916605 54.6118426,25.29036 53.9412048,23 L53.9412041,23 Z" id="形状" fill="url(#linearGradient-1)" fill-rule="nonzero"></path>
    </g>
</svg>