<?xml version="1.0" encoding="UTF-8"?>
<svg width="60px" height="60px" viewBox="0 0 60 60" version="1.1" xmlns="http://www.w3.org/2000/svg" xmlns:xlink="http://www.w3.org/1999/xlink">
    <title>个人统计</title>
    <defs>
        <linearGradient x1="-22.6431078%" y1="-5.10672631%" x2="162.411691%" y2="106.207013%" id="linearGradient-1">
            <stop stop-color="#4468DF" offset="0%"></stop>
            <stop stop-color="#5AADF9" offset="100%"></stop>
        </linearGradient>
    </defs>
    <g id="个人统计" stroke="none" stroke-width="1" fill="none" fill-rule="evenodd">
        <path d="M31,7 C32.0519717,7 32.9142467,7.76032031 32.9939827,8.72597385 L33,8.8722925 L33,8.8722925 L33,11 L50.3686781,11 C52.3095089,11 53.8947147,12.5713192 53.9949665,14.5484917 L54,14.7475186 L54,40.2524814 C54,42.3221803 52.3742033,44 50.3686781,44 L50.3686781,44 L39.031,44 L44.4143799,48.8935524 C45.1958321,49.6047634 45.1951152,50.75721 44.4127758,51.4676152 C44.0794384,51.7703038 43.6408357,51.955205 43.1752193,51.9928453 L43,52 L42.826664,51.9933336 C42.3596537,51.9568848 41.9193375,51.7722949 41.5846867,51.4691207 L34.5770942,45.0986344 C34.242273,44.7902006 34.053342,44.4005733 34.0097881,44.0005072 L25.990284,44.0003358 C25.9468328,44.4009888 25.7576443,44.7910487 25.4227647,45.09955 L18.4130433,51.471981 C18.078518,51.7736173 17.6392003,51.9571567 17.1734228,51.9933791 L16.9976664,52 C15.8915686,51.9974311 14.9971837,51.1802032 15,50.1746606 C15.0013517,49.6952542 15.2106341,49.2356752 15.5824257,48.8956878 L20.967,44 L9.63132194,44 C7.69049109,44 6.10528525,42.4286808 6.0050335,40.4515083 L6,40.2524814 L6,14.7475192 C6,12.6778203 7.62579673,11 9.63132194,11 L9.63132194,11 L29,11 L29,8.8722925 C29,7.83825315 29.8954297,7 31,7 Z M46.5210994,18.5746031 C45.8480468,17.846403 44.7153943,17.8047599 43.9912524,18.4815844 L43.9912524,18.4815844 L32.869423,28.8887196 C32.7887121,28.9642976 32.7015334,29.0325731 32.6088985,29.0927537 C31.7383817,29.6582873 30.5767905,29.4070988 30.014409,28.5317036 L30.014409,28.5317036 L27.8515043,25.1776406 C27.6608342,24.8816121 27.4422247,24.6047622 27.1987114,24.3509316 C25.1063865,22.1699796 21.6520841,22.1076175 19.4832826,24.2116503 L19.4832826,24.2116503 L11.5476594,31.903753 C10.8358935,32.5938491 10.8152026,33.7335169 11.5014529,34.4492715 C12.1877032,35.1650261 13.3210199,35.185833 14.0327858,34.4957369 L14.0327858,34.4957369 L21.9684091,26.8006457 C22.0541841,26.717714 22.1475969,26.6431614 22.2473894,26.5779909 C23.1179353,26.0094742 24.2819598,26.2582721 24.8473094,27.1336965 L24.8473094,27.1336965 L27.0102142,30.4906894 C27.1837081,30.7600943 27.3803722,31.0136706 27.5979452,31.248503 C29.652192,33.4657239 33.1048979,33.5884909 35.3097614,31.5227145 L35.3097614,31.5227145 L46.4285991,21.1186274 C47.152741,20.4418029 47.194152,19.3028031 46.5210994,18.5746031 Z" id="形状" fill="url(#linearGradient-1)" fill-rule="nonzero"></path>
    </g>
</svg>