<?xml version="1.0" encoding="UTF-8"?>
<svg width="26px" height="26px" viewBox="0 0 26 26" version="1.1" xmlns="http://www.w3.org/2000/svg" xmlns:xlink="http://www.w3.org/1999/xlink">
    <title>icon/彩色/预约试驾</title>
    <defs>
        <linearGradient x1="2.87052612%" y1="0%" x2="100%" y2="100%" id="linearGradient-1">
            <stop stop-color="#4268E6" offset="0%"></stop>
            <stop stop-color="#498EFA" offset="100%"></stop>
        </linearGradient>
        <linearGradient x1="2.87052612%" y1="29.7520661%" x2="100%" y2="70.2479339%" id="linearGradient-2">
            <stop stop-color="#4268E6" offset="0%"></stop>
            <stop stop-color="#498EFA" offset="100%"></stop>
        </linearGradient>
    </defs>
    <g id="icon/彩色/预约试驾" stroke="none" stroke-width="1" fill="none" fill-rule="evenodd">
        <g id="车主服务" transform="translate(5.000000, 5.000000)" fill-rule="nonzero">
            <rect id="Rectangle-path" fill="#000000" opacity="0" x="0" y="0" width="17" height="17"></rect>
            <path d="M1.51485149,7.48502995 C2.02581329,4.10179642 4.96234088,1.497006 8.5,1.49700599 C12.0376591,1.49700597 14.9741867,4.1017964 15.4851485,7.48502995 L17,7.48502995 C16.4800212,3.2724551 12.8672206,0 8.5,0 C4.13277935,0 0.519978779,3.2724551 0,7.48502995 L1.51485149,7.48502995 Z M7.44801981,15.4850299 C4.39427157,15.0269461 1.97471712,12.6227545 1.51485149,9.58083832 L0,9.58083832 C0.477899573,13.4491018 3.56471004,16.5239521 7.44801981,17 L7.44801981,15.4850299 Z M15.4851485,9.58083832 C15.0252829,12.6227545 12.6057284,15.0269461 9.55198019,15.4850299 L9.55198019,17 C13.43529,16.5239521 16.5221004,13.4491018 17,9.58083832 L15.4851485,9.58083832 L15.4851485,9.58083832 Z" id="Shape" fill="url(#linearGradient-1)"></path>
            <path d="M3,8 L3,10.1304348 L4.7368421,10.1304348 C4.97131579,10.1304348 5.19999999,10.1608696 5.41999999,10.2156522 C6.73999999,10.5443478 7.63157894,11.8469565 7.63157895,13.2743478 L7.63157895,15 L9.65789473,15 L9.65789473,13.2743478 C9.65789473,11.8469565 10.5494737,10.5443478 11.8694737,10.2156522 C12.0894737,10.1608696 12.3181579,10.1304348 12.5526316,10.1304348 L14,10.1304348 L14,8 L3,8 Z" id="Shape" fill="url(#linearGradient-2)"></path>
        </g>
    </g>
</svg>