<?xml version="1.0" encoding="UTF-8"?>
<svg width="40px" height="40px" viewBox="0 0 40 40" version="1.1" xmlns="http://www.w3.org/2000/svg" xmlns:xlink="http://www.w3.org/1999/xlink">
    <title>主页icon/我的</title>
    <defs>
        <linearGradient x1="8.57761085%" y1="0%" x2="93.9453125%" y2="100%" id="linearGradient-1">
            <stop stop-color="#4268E6" offset="0%"></stop>
            <stop stop-color="#498EFA" offset="100%"></stop>
        </linearGradient>
    </defs>
    <g id="主页icon/我的" stroke="none" stroke-width="1" fill="none" fill-rule="evenodd">
        <path d="M32.8590776,24.7747399 C32.6408958,24.6764062 28.7163503,22.9327144 24.3908958,22.058791 C24.8940776,21.6419115 25.3345322,21.153013 25.7163503,20.6197951 L25.7163503,20.6197951 C26.6508461,19.3238548 27.1551699,17.7595614 27.1563503,16.1532294 L27.1563503,11.6187996 L27.1563505,11.6188701 C27.1508878,9.19633385 26.013244,6.92032 24.0909513,5.48612827 L24.0909517,5.48612854 C22.8114048,4.52185674 21.2605668,4.00085696 19.6672727,4 C15.5368182,4 12.1768182,7.4181346 12.1768182,11.6187838 L12.1768182,16.1532136 C12.1768182,18.6004761 13.3222727,20.7762822 15.0909091,22.1723436 C10.9795455,23.0739667 7.36318182,24.6750054 7.18454545,24.7567193 C5.93818182,25.2650076 5,26.6873837 5,28.0640554 L5,33.7646397 L5.07363636,33.9820818 C5.47863636,35.1897858 6.57090909,36 7.79136364,36 L32.2086364,36 C33.6268182,36 34.8009091,34.9238693 34.9768182,33.5347327 L35,28.0640554 C35,27.4048042 34.7790909,26.7344731 34.4177273,26.1597057 C34.0304545,25.5420039 33.4822727,25.0337156 32.8590909,24.7747241" id="路径备份" fill="url(#linearGradient-1)" fill-rule="nonzero"></path>
    </g>
</svg>