<?xml version="1.0" encoding="UTF-8"?>
<svg width="26px" height="26px" viewBox="0 0 26 26" version="1.1" xmlns="http://www.w3.org/2000/svg" xmlns:xlink="http://www.w3.org/1999/xlink">
    <title>icon/白色/受理人选择</title>
    <g id="icon/白色/受理人选择" stroke="none" stroke-width="1" fill="none" fill-rule="evenodd">
        <g id="businesscard-copy" transform="translate(2.000000, 3.000000)" fill-rule="nonzero">
            <rect id="Rectangle-path" fill="#000000" opacity="0" x="0" y="0" width="21" height="21"></rect>
            <path d="M15.6666667,7.25000096 L11.6666667,7.25000096 C11.2984768,7.25000096 11,7.54101583 11,7.90000085 C11,8.25898588 11.2984768,8.55000075 11.6666667,8.55000075 L15.6666667,8.55000075 C16.0348565,8.55000075 16.3333333,8.25898588 16.3333333,7.90000085 C16.3333333,7.54101583 16.0348565,7.25000096 15.6666667,7.25000096 L15.6666667,7.25000096 Z M15.6666667,9.85000053 L13,9.85000053 C12.6318102,9.85000053 12.3333333,10.1410154 12.3333333,10.5000004 C12.3333333,10.8589854 12.6318102,11.1500003 13,11.1500003 L15.6666667,11.1500003 C16.0348565,11.1500003 16.3333333,10.8589854 16.3333333,10.5000004 C16.3333333,10.1410154 16.0348565,9.85000053 15.6666667,9.85000053 L15.6666667,9.85000053 Z M15.6666667,12.4500001 L13,12.4500001 C12.6318102,12.4500001 12.3333333,12.741015 12.3333333,13.1 C12.3333333,13.458985 12.6318102,13.7499999 13,13.7499999 L15.6666667,13.7499999 C16.0348565,13.7499999 16.3333333,13.458985 16.3333333,13.1 C16.3333333,12.741015 16.0348565,12.4500001 15.6666667,12.4500001 L15.6666667,12.4500001 Z M17.6653333,15.6999995 L4.33333333,15.7045495 L4.33533333,5.30000129 L17.6666667,5.29545129 L17.6713333,15.6993495 L17.6646667,15.6999995 L17.6653333,15.6999995 Z M17.6646667,4 L4.336,4 C3.60054964,3.99892072 3.0029395,4.57839223 3,5.29545129 L3,15.7045495 C3,16.4182494 3.59933333,17 4.33533333,17 L17.6653333,17 C18.4004147,17.0007204 18.9974276,16.4212497 19,15.7045495 L19,5.29545129 C18.9974276,4.57875114 18.4004147,3.99928042 17.6653333,4 L17.6646667,4 Z M10.3333333,12.7373 L6.33333333,12.7373 L6.33333333,12.3161001 C6.76333333,12.1471001 7.66333333,11.8481002 8.33333333,11.8481002 C8.99466667,11.8481002 9.88866667,12.1425501 10.3333333,12.3167501 L10.3333333,12.7373 Z M7.73666667,9.07000066 C7.73666667,8.77815071 7.97066667,8.55000075 8.268,8.55000075 C8.56177052,8.55107485 8.7993354,8.78357244 8.79933333,9.07000066 L8.79933333,9.92150052 C8.80131309,10.0597163 8.74605645,10.1928732 8.64605861,10.2908604 C8.54606077,10.3888476 8.40976794,10.4433887 8.268,10.4421504 C7.97422948,10.4410763 7.73666667,10.2085787 7.73666667,9.92215052 L7.73666667,9.07000066 L7.73666667,9.07000066 Z M11.0093333,11.1825003 C10.6447148,11.0333703 10.2714013,10.9053151 9.89133333,10.7990004 C10.0406667,10.5377004 10.1326667,10.2413005 10.1326667,9.92150052 L10.1326667,9.07000066 C10.1326667,8.06640083 9.296,7.25000096 8.268,7.25000096 C7.23815436,7.25179247 6.40406677,8.06589998 6.40333333,9.07000066 L6.40333333,9.92150052 C6.40333333,10.2536505 6.502,10.5617504 6.662,10.8302004 C6.10866667,10.9927003 5.698,11.1656003 5.67666667,11.1753503 C5.27082511,11.3423625 5.00511257,11.7280317 5,12.1575001 L5,13.2930499 L5.03533333,13.3944499 C5.17,13.7798999 5.536,14.0379498 5.946,14.0379498 L10.7206667,14.0379498 C11.2155783,14.0376226 11.6267075,13.665667 11.664,13.1845 L11.6666667,12.1575001 C11.6666667,11.7395502 11.39,11.3365503 11.0093333,11.1831503 L11.0093333,11.1825003 Z" id="Shape" fill="#FFFFFF"></path>
        </g>
    </g>
</svg>